<?xml version="1.0" standalone="no"?>
<!DOCTYPE svg PUBLIC "-//W3C//DTD SVG 20010904//EN"
 "http://www.w3.org/TR/2001/REC-SVG-20010904/DTD/svg10.dtd">
<svg version="1.0" xmlns="http://www.w3.org/2000/svg"
 width="768.000000pt" height="364.000000pt" viewBox="0 0 768.000000 364.000000"
 preserveAspectRatio="xMidYMid meet">

<g transform="translate(0.000000,364.000000) scale(0.100000,-0.100000)"
fill="#000000" stroke="none">
<path d="M3913 3479 c-90 -11 -188 -43 -278 -90 -175 -90 -273 -191 -334 -342
-15 -39 -14 -158 3 -198 37 -89 101 -128 207 -129 121 0 215 46 336 165 94 92
133 164 134 246 3 99 -31 131 -136 130 -100 -1 -189 -44 -280 -136 -103 -104
-116 -249 -26 -295 15 -8 26 -9 33 -2 7 7 0 16 -21 26 -28 15 -31 21 -31 64 0
63 40 131 123 208 121 114 228 144 289 84 27 -28 30 -36 26 -78 -8 -75 -44
-140 -122 -218 -118 -118 -218 -169 -326 -168 -63 1 -107 20 -143 64 -49 58
-49 137 2 241 80 167 273 327 459 380 89 26 240 35 326 20 69 -12 168 -50 180
-70 4 -6 -19 -36 -55 -68 -94 -88 -196 -216 -331 -417 -164 -245 -238 -318
-381 -375 -43 -17 -182 -14 -220 5 -45 23 -87 64 -87 86 0 15 3 16 25 6 22
-10 29 -9 47 9 38 39 20 103 -29 103 -40 0 -73 -42 -73 -92 0 -61 28 -100 100
-136 48 -23 215 -23 282 1 106 38 216 98 279 154 47 42 110 135 175 260 42 81
61 108 67 98 6 -11 27 -15 77 -15 68 0 71 -1 109 -39 107 -107 47 -317 -123
-430 -30 -20 -51 -25 -97 -26 -50 0 -62 4 -86 27 -33 34 -37 103 -9 163 27 57
113 138 163 154 102 34 168 -61 107 -155 -10 -15 -12 -24 -5 -29 18 -10 29 3
46 55 55 166 -141 220 -274 75 -57 -62 -82 -116 -82 -181 -2 -93 52 -144 152
-144 126 0 266 81 319 186 32 61 35 178 7 236 -19 39 -92 108 -114 108 -25 0
-4 18 29 25 84 19 148 99 148 184 0 49 -20 93 -63 138 l-31 33 70 32 c59 27
80 32 149 32 69 0 85 -3 117 -24 68 -46 101 -143 78 -229 -8 -30 -8 -47 -1
-54 33 -33 44 169 12 231 -38 75 -91 102 -199 102 -81 0 -132 -13 -210 -52
-41 -20 -45 -21 -71 -5 -107 63 -271 88 -438 66z m482 -161 c13 -22 19 -51 19
-88 0 -75 -31 -132 -92 -171 -43 -27 -52 -29 -117 -24 -50 3 -69 8 -67 17 13
50 205 298 231 298 4 0 15 -15 26 -32z"/>
<path d="M1233 3406 c-162 -40 -299 -164 -353 -322 -92 -267 61 -561 333 -639
81 -23 205 -21 287 4 229 72 377 310 340 547 -45 285 -328 477 -607 410z"/>
<path d="M5326 3228 c-13 -21 -163 -276 -190 -323 -138 -242 -247 -385 -296
-385 -41 0 -20 63 74 220 47 79 86 147 86 152 0 13 -98 9 -103 -4 -3 -10 -10
-8 -25 6 -17 14 -30 17 -59 13 -99 -16 -251 -126 -292 -210 -12 -25 -21 -63
-21 -89 0 -39 5 -52 34 -82 51 -54 99 -45 169 33 42 47 47 49 47 20 0 -25 18
-60 39 -76 33 -25 68 -15 124 37 l55 50 13 -37 c22 -68 60 -79 124 -37 22 14
58 48 80 74 36 45 59 56 53 27 -1 -7 1 -29 5 -49 9 -41 50 -78 88 -78 25 0 81
40 118 83 l24 29 16 -43 c19 -51 54 -75 96 -65 37 9 123 98 219 226 43 58 90
117 104 133 28 30 52 35 52 11 0 -22 -60 -133 -134 -249 -35 -55 -62 -103 -59
-107 2 -5 23 -8 47 -8 l42 0 79 127 c93 147 189 253 229 253 15 0 29 -6 32
-14 6 -15 0 -25 -77 -143 -59 -89 -72 -151 -42 -191 47 -64 110 -48 191 46
l46 54 13 -38 c21 -61 73 -104 125 -104 39 1 101 35 157 89 30 28 55 50 56 48
1 -1 9 -24 19 -50 31 -84 100 -107 190 -63 82 40 253 226 207 226 -4 0 -30
-27 -56 -61 -85 -108 -186 -171 -249 -155 -35 9 -43 46 -21 101 17 47 47 75
78 75 38 0 174 51 205 78 43 36 52 82 22 112 -19 19 -29 21 -69 16 -53 -7
-171 -63 -225 -108 -20 -16 -54 -55 -75 -86 -81 -119 -214 -217 -261 -192 -64
34 -12 184 107 307 40 41 58 53 82 53 24 0 31 -4 31 -19 0 -17 -19 -37 -89
-93 -24 -20 -28 -66 -6 -74 71 -27 156 122 110 192 -14 23 -22 26 -54 21 -94
-12 -195 -88 -285 -215 -65 -92 -90 -120 -136 -154 -67 -49 -79 -13 -24 78 77
127 86 148 87 196 1 37 -5 53 -23 73 -41 44 -98 28 -163 -44 -20 -23 -39 -41
-42 -41 -3 0 -5 16 -5 35 0 40 -29 75 -62 75 -27 0 -88 -62 -194 -200 -88
-113 -164 -190 -189 -190 -46 0 -25 56 93 252 39 64 68 119 64 122 -10 11 -90
6 -94 -6 -3 -7 -12 -6 -31 6 -38 26 -90 14 -185 -42 -99 -58 -131 -87 -205
-184 -100 -132 -177 -185 -177 -123 0 33 20 69 259 469 72 120 131 223 131
227 0 5 -20 9 -45 9 -35 0 -48 -5 -59 -22z m1694 -367 c0 -25 -39 -62 -97 -93
-61 -33 -93 -43 -93 -29 0 18 102 115 140 133 38 18 50 16 50 -11z m-2162 -4
c8 -40 -115 -226 -197 -300 -56 -51 -85 -48 -89 8 -2 32 5 52 35 101 76 124
175 217 223 212 14 -2 26 -10 28 -21z m738 9 c20 -53 -200 -346 -261 -346 -84
0 -4 177 139 308 59 53 110 69 122 38z"/>
<path d="M1162 2375 c-109 -40 -262 -154 -398 -298 -444 -470 -470 -959 -61
-1157 102 -49 216 -76 377 -90 142 -13 177 -9 238 26 l42 25 43 -25 c61 -35
92 -39 237 -26 322 27 525 131 615 314 83 169 71 346 -40 571 -91 183 -266
395 -429 519 -78 59 -232 142 -284 152 -31 6 -38 2 -93 -52 l-59 -58 -63 61
-62 61 -63 -23z m756 -983 c3 -32 0 -63 -8 -76 -30 -56 -149 -92 -345 -104
-110 -7 -128 -11 -164 -35 l-40 -27 -37 25 c-41 28 -60 32 -199 40 -168 9
-287 47 -315 101 -16 28 -8 115 13 164 l15 35 1 -81 1 -80 40 -23 c50 -28 169
-50 275 -51 51 0 100 -8 135 -19 49 -18 57 -18 84 -4 18 10 77 18 161 23 127
8 155 13 273 46 l52 15 1 107 1 107 26 -55 c14 -30 28 -79 30 -108z"/>
<path d="M3935 1449 c-143 -18 -248 -56 -372 -136 -107 -68 -164 -121 -211
-197 -47 -76 -62 -125 -62 -207 1 -150 87 -226 248 -220 102 3 228 73 335 186
107 112 142 264 75 327 -31 29 -35 30 -108 26 -99 -5 -171 -38 -255 -119 -77
-74 -105 -128 -105 -205 0 -48 4 -59 29 -85 16 -16 39 -29 50 -29 29 0 26 12
-9 32 -26 15 -30 23 -30 62 0 62 32 118 115 202 76 76 143 114 216 122 41 4
49 1 77 -28 38 -38 41 -75 13 -150 -39 -104 -151 -215 -281 -281 -56 -28 -75
-33 -140 -33 -64 0 -81 3 -116 26 -204 131 57 540 415 652 143 45 341 41 445
-8 88 -42 88 -37 10 -113 -39 -37 -95 -97 -125 -133 -30 -35 -59 -70 -65 -77
-6 -6 -65 -92 -130 -190 -178 -268 -281 -362 -428 -393 -97 -20 -209 7 -246
60 -27 37 -27 65 -1 49 39 -25 89 28 72 74 -22 59 -104 39 -117 -28 -18 -99
38 -160 169 -186 142 -27 395 75 523 212 46 49 83 111 176 293 14 28 23 35 31
27 6 -6 39 -11 74 -11 58 0 66 -3 103 -36 53 -48 74 -114 58 -187 -41 -194
-242 -340 -346 -252 -54 46 -51 118 9 208 63 96 182 145 239 99 20 -16 25 -29
24 -64 -1 -23 -9 -56 -17 -72 -9 -16 -14 -34 -10 -38 10 -17 41 23 52 67 33
129 -92 198 -214 118 -93 -61 -146 -147 -146 -238 0 -100 51 -140 173 -133
123 6 235 74 296 177 23 40 27 57 27 126 0 112 -34 174 -119 218 l-30 14 25 8
c48 15 105 44 121 62 69 75 61 190 -18 274 l-25 26 53 25 c113 53 202 58 279
16 68 -38 104 -145 79 -234 -14 -49 -6 -70 16 -40 9 14 14 47 14 107 0 77 -3
90 -26 125 -31 45 -47 59 -93 79 -70 31 -231 10 -308 -40 -29 -20 -41 -19 -90
5 -66 32 -122 47 -212 59 -92 12 -87 12 -186 0z m457 -161 c38 -59 31 -149
-16 -211 -47 -61 -78 -75 -168 -76 -43 -1 -78 1 -78 4 0 10 41 76 90 146 52
73 132 159 149 159 5 0 15 -10 23 -22z"/>
<path d="M6455 1180 c-12 -19 -37 -62 -57 -95 -19 -33 -73 -125 -121 -205
-166 -279 -341 -439 -423 -385 -31 20 -31 56 -1 115 18 35 31 47 58 53 139 36
200 61 229 94 66 75 14 140 -87 109 -122 -37 -198 -90 -274 -192 -116 -154
-227 -226 -273 -175 -15 17 -18 30 -12 67 16 117 169 304 230 281 24 -10 19
-44 -10 -64 -86 -61 -104 -94 -68 -124 36 -29 108 46 119 126 13 84 -26 109
-116 76 -77 -29 -163 -102 -230 -196 -69 -98 -161 -187 -183 -179 -35 13 -14
66 101 256 39 64 69 119 65 122 -10 11 -88 6 -100 -6 -9 -9 -16 -7 -31 6 -18
16 -26 17 -70 6 -90 -21 -213 -105 -268 -182 -52 -72 -112 -98 -133 -58 -21
39 -3 83 48 115 66 41 104 82 100 108 -8 54 -83 13 -136 -73 -34 -55 -64 -83
-46 -42 4 9 9 34 12 55 3 30 -1 44 -19 63 -12 13 -31 24 -41 24 -32 0 -175
-155 -166 -181 2 -6 30 21 61 60 60 74 91 99 102 81 9 -14 -18 -66 -112 -222
-46 -75 -83 -140 -83 -143 0 -3 21 -5 48 -5 l47 0 44 71 c74 120 111 153 111
99 0 -44 53 -61 113 -35 14 6 17 2 17 -25 0 -60 47 -120 94 -120 38 0 74 23
120 76 32 36 35 37 36 16 0 -37 28 -81 55 -88 44 -11 77 6 140 70 l61 64 17
-48 c12 -34 27 -55 51 -69 66 -41 135 -21 225 66 30 29 55 52 56 50 0 -1 7
-22 15 -47 18 -53 66 -90 118 -90 47 0 109 33 173 91 30 27 54 49 54 49 1 0
-1 -15 -3 -34 -5 -43 21 -94 53 -102 42 -10 69 3 126 61 29 30 57 55 61 55 3
0 9 -12 13 -28 7 -32 22 -52 55 -75 54 -37 145 -10 228 67 56 52 67 56 58 22
-7 -29 8 -74 32 -92 45 -35 126 1 186 82 17 21 33 41 36 44 12 11 70 94 70
102 0 21 -22 2 -68 -59 -99 -131 -150 -175 -177 -153 -8 7 -15 19 -15 27 0 16
38 88 83 160 15 24 27 45 27 47 0 3 19 34 41 70 41 65 42 66 85 66 24 0 44 5
44 10 0 6 -18 10 -40 10 l-39 0 36 60 c20 33 33 63 30 66 -3 4 -23 8 -44 9
-38 3 -40 2 -81 -66 -40 -63 -46 -69 -77 -69 -19 0 -37 -4 -40 -10 -4 -6 5
-10 19 -10 35 0 33 -21 -6 -84 -66 -105 -149 -196 -233 -255 -107 -75 -177
-26 -127 89 14 34 24 43 57 52 145 39 173 50 223 86 27 19 32 29 32 62 0 31
-5 43 -26 56 -23 15 -31 16 -77 4 -119 -30 -234 -113 -286 -205 -37 -65 -138
-173 -166 -177 -33 -5 -30 42 5 108 39 72 279 478 327 552 19 30 32 57 28 60
-3 4 -25 7 -47 7 -36 0 -44 -4 -63 -35z m-1195 -344 c14 -18 -18 -88 -88 -186
-73 -102 -137 -162 -170 -158 -74 8 -4 168 129 294 68 65 105 78 129 50z m850
-10 c0 -34 -96 -105 -170 -126 -26 -8 -29 -7 -21 8 12 22 111 116 136 130 34
19 55 14 55 -12z m597 8 c7 -18 -27 -57 -77 -88 -43 -27 -121 -59 -128 -52 -7
8 123 135 150 145 34 14 48 13 55 -5z"/>
<path d="M424 950 c-162 -44 -232 -133 -222 -280 18 -242 265 -376 773 -420
208 -17 283 -14 343 16 l52 26 52 -26 c60 -30 135 -33 343 -16 505 43 753 177
773 415 12 158 -65 249 -245 291 -64 15 -67 15 -92 -5 -146 -116 -342 -177
-603 -188 -122 -5 -155 -3 -198 11 -49 16 -54 16 -96 0 -37 -14 -68 -16 -192
-11 -249 9 -439 64 -577 167 l-50 37 -61 -17z"/>
</g>
</svg>
