<svg id="svg" version="1.1" xmlns="http://www.w3.org/2000/svg" xmlns:xlink="http://www.w3.org/1999/xlink" width="400" height="268.1818181818182" viewBox="0, 0, 400,268.1818181818182"><g id="svgg"><path id="path0" d="M79.276 36.782 C 78.685 36.911,77.297 37.190,76.190 37.403 C 72.072 38.193,68.277 39.397,66.264 40.551 C 66.043 40.678,65.681 40.850,65.459 40.933 C 65.238 41.017,64.876 41.188,64.655 41.313 C 64.433 41.438,63.536 41.923,62.660 42.391 C 58.466 44.629,53.431 48.846,50.169 52.850 C 49.509 53.662,48.906 54.386,48.830 54.460 C 48.666 54.620,47.734 55.941,46.689 57.494 C 45.818 58.790,42.924 64.346,42.924 64.723 C 42.924 64.862,42.756 65.356,42.551 65.821 C 41.937 67.211,41.291 69.268,41.043 70.623 C 40.915 71.323,40.721 72.041,40.612 72.218 C 39.257 74.410,39.303 88.604,40.676 92.360 C 40.880 92.916,41.047 93.701,41.048 94.103 C 41.049 94.506,41.230 95.181,41.450 95.604 C 41.671 96.027,41.851 96.548,41.851 96.762 C 41.851 97.799,44.552 103.659,46.156 106.103 C 46.738 106.989,47.293 107.894,47.391 108.115 C 47.545 108.465,50.045 111.712,50.829 112.582 C 54.348 116.485,60.385 121.300,63.419 122.623 C 63.730 122.758,64.165 122.983,64.386 123.123 C 64.928 123.465,68.582 125.106,69.752 125.533 C 71.489 126.168,73.910 126.768,77.934 127.560 C 81.745 128.311,89.221 128.259,93.628 127.452 C 96.195 126.982,100.999 125.612,102.616 124.889 C 104.812 123.907,109.470 121.524,109.725 121.252 C 109.799 121.173,110.573 120.640,111.444 120.069 C 114.331 118.176,116.593 115.991,142.838 89.739 C 174.008 58.560,172.528 59.831,180.305 57.577 C 182.418 56.965,189.950 56.965,192.062 57.577 C 201.066 60.186,208.718 67.161,210.205 74.113 C 210.307 74.592,210.498 75.117,210.630 75.281 C 211.022 75.770,211.514 79.638,211.514 82.227 C 211.514 84.815,211.022 88.684,210.630 89.172 C 210.498 89.336,210.301 89.893,210.191 90.409 C 208.593 97.937,200.168 105.213,190.610 107.319 C 189.221 107.625,183.146 107.625,181.757 107.319 C 174.633 105.749,172.644 104.499,164.591 96.529 C 161.641 93.610,159.094 91.171,158.931 91.108 C 158.534 90.956,144.626 104.943,144.778 105.340 C 144.950 105.788,153.998 114.823,156.241 116.785 C 158.977 119.180,159.069 119.252,160.966 120.486 C 166.956 124.383,171.626 126.214,178.940 127.533 C 184.499 128.535,192.600 128.206,197.854 126.764 C 200.252 126.106,202.933 125.257,203.756 124.895 C 205.731 124.025,210.582 121.545,210.865 121.260 C 210.939 121.186,211.543 120.763,212.207 120.321 C 212.871 119.879,213.561 119.396,213.740 119.249 C 213.919 119.101,214.221 118.860,214.411 118.712 C 218.733 115.348,222.042 111.765,224.971 107.279 C 226.221 105.363,228.840 100.434,228.840 99.996 C 228.840 99.858,229.008 99.365,229.213 98.900 C 231.327 94.117,232.929 84.359,232.361 79.736 C 231.814 75.286,231.396 72.580,231.211 72.298 C 231.114 72.150,230.950 71.546,230.847 70.957 C 230.595 69.515,228.861 64.384,228.402 63.723 C 228.200 63.432,228.035 62.994,228.035 62.750 C 228.035 62.506,227.862 62.162,227.650 61.986 C 227.438 61.810,227.187 61.313,227.092 60.880 C 226.997 60.448,226.816 60.094,226.690 60.094 C 226.564 60.094,226.377 59.829,226.275 59.505 C 226.172 59.182,225.681 58.338,225.183 57.630 C 224.686 56.923,224.279 56.277,224.279 56.195 C 224.279 56.022,224.343 56.104,221.766 52.985 C 216.983 47.196,211.325 43.004,204.024 39.841 C 201.860 38.903,197.587 37.659,195.305 37.302 C 194.346 37.151,193.018 36.912,192.354 36.769 C 190.789 36.432,182.115 36.432,180.550 36.769 C 179.886 36.912,178.578 37.149,177.642 37.296 C 176.707 37.443,175.319 37.748,174.557 37.973 C 171.108 38.994,169.377 39.582,168.887 39.899 C 168.596 40.087,168.158 40.241,167.914 40.241 C 167.670 40.241,167.320 40.423,167.136 40.644 C 166.952 40.865,166.645 41.046,166.454 41.046 C 166.018 41.046,162.169 43.264,160.027 44.749 C 156.994 46.852,154.769 49.008,128.850 74.954 C 102.087 101.745,100.463 103.282,97.250 104.860 C 94.686 106.120,93.354 106.571,90.007 107.317 C 88.623 107.625,82.548 107.626,81.154 107.319 C 77.434 106.499,75.439 105.773,73.251 104.442 C 72.328 103.880,71.295 103.269,70.956 103.083 C 69.571 102.324,65.453 97.959,64.190 95.909 C 63.461 94.727,61.703 91.017,61.702 90.658 C 61.701 90.447,61.523 89.934,61.305 89.518 C 58.808 84.729,60.554 73.799,64.772 67.823 C 67.034 64.617,72.465 59.826,73.835 59.826 C 74.001 59.826,74.327 59.664,74.560 59.466 C 74.992 59.099,77.019 58.355,79.702 57.577 C 81.811 56.966,89.344 56.965,91.459 57.576 C 96.078 58.910,98.598 60.158,101.677 62.639 C 102.046 62.936,104.689 65.503,107.552 68.343 C 110.414 71.184,112.874 73.508,113.019 73.508 C 113.671 73.508,127.198 59.573,126.960 59.147 C 126.703 58.688,120.530 52.414,117.237 49.265 C 114.960 47.088,111.584 44.462,109.591 43.318 C 108.853 42.894,108.189 42.481,108.115 42.399 C 107.996 42.268,105.097 40.841,102.884 39.825 C 101.253 39.076,96.546 37.694,94.299 37.304 C 93.414 37.150,92.146 36.908,91.482 36.767 C 89.994 36.449,80.746 36.460,79.276 36.782 M181.891 137.635 C 178.591 138.081,173.514 139.262,172.059 139.924 C 171.594 140.136,171.051 140.309,170.851 140.310 C 170.338 140.312,163.419 143.831,161.863 144.882 C 158.198 147.357,153.475 151.708,151.104 154.795 C 150.481 155.607,149.879 156.392,149.766 156.539 C 149.060 157.459,147.922 159.315,147.547 160.156 C 147.384 160.521,147.162 160.884,147.054 160.960 C 146.946 161.037,146.430 162.005,145.908 163.112 C 145.054 164.921,144.693 165.824,143.546 169.014 C 143.079 170.313,142.460 172.862,142.145 174.782 C 142.000 175.667,141.709 177.270,141.498 178.344 C 141.002 180.862,141.004 185.166,141.502 188.062 C 142.267 192.512,142.420 193.311,142.816 194.903 C 143.684 198.388,146.329 205.023,147.043 205.505 C 147.157 205.582,147.384 205.944,147.547 206.310 C 147.922 207.151,149.060 209.006,149.766 209.926 C 149.879 210.074,150.478 210.858,151.096 211.670 C 154.669 216.357,164.949 224.547,167.259 224.547 C 167.450 224.547,167.757 224.728,167.941 224.950 C 168.125 225.171,168.475 225.352,168.719 225.352 C 168.963 225.352,169.401 225.509,169.692 225.700 C 169.983 225.892,171.127 226.326,172.233 226.664 C 173.340 227.003,174.608 227.397,175.050 227.540 C 175.493 227.683,176.881 227.984,178.135 228.208 C 179.390 228.432,180.959 228.719,181.623 228.845 C 183.149 229.137,190.976 229.140,192.757 228.850 C 197.576 228.065,201.790 226.959,204.561 225.750 C 206.404 224.946,209.705 223.318,210.329 222.905 C 210.698 222.661,211.724 221.998,212.609 221.431 C 213.494 220.864,214.362 220.278,214.537 220.127 C 214.712 219.976,215.316 219.490,215.878 219.048 C 217.755 217.569,219.396 215.954,245.307 190.074 C 259.490 175.909,271.455 164.016,271.898 163.646 C 274.163 161.753,278.564 159.391,280.623 158.964 C 281.136 158.858,282.073 158.601,282.706 158.393 C 284.294 157.871,291.695 157.871,293.284 158.393 C 293.916 158.601,294.855 158.858,295.371 158.965 C 297.087 159.321,299.533 160.456,301.916 162.003 C 314.129 169.933,317.079 186.869,308.277 198.524 C 306.906 200.339,303.580 203.478,302.143 204.313 C 301.444 204.719,300.812 205.131,300.738 205.229 C 300.338 205.761,295.647 207.646,294.723 207.646 C 294.401 207.646,293.988 207.797,293.803 207.981 C 293.233 208.552,284.462 208.604,282.554 208.048 C 277.863 206.681,276.748 206.192,273.781 204.204 C 271.984 202.998,271.532 202.587,266.154 197.252 C 263.290 194.410,260.814 192.086,260.652 192.086 C 260.205 192.086,246.465 205.930,246.580 206.265 C 246.719 206.671,255.385 215.378,257.679 217.416 C 261.068 220.427,267.241 224.547,268.363 224.547 C 268.574 224.547,268.897 224.728,269.081 224.950 C 269.265 225.171,269.593 225.352,269.810 225.352 C 270.028 225.352,270.526 225.523,270.918 225.732 C 272.406 226.525,276.958 227.854,279.812 228.330 C 280.771 228.489,282.099 228.723,282.763 228.848 C 284.296 229.137,292.124 229.139,293.897 228.850 C 300.474 227.779,303.593 226.820,308.786 224.271 C 313.954 221.735,320.002 217.103,322.871 213.484 C 323.018 213.298,323.633 212.542,324.236 211.804 C 324.839 211.066,325.908 209.557,326.611 208.451 C 327.313 207.344,328.117 206.112,328.397 205.712 C 328.678 205.312,328.907 204.814,328.907 204.604 C 328.907 204.395,329.088 204.074,329.309 203.890 C 329.531 203.706,329.712 203.438,329.712 203.294 C 329.712 203.150,329.883 202.652,330.092 202.187 C 331.087 199.975,331.550 198.775,331.727 197.949 C 331.833 197.454,332.016 196.928,332.133 196.781 C 332.251 196.633,332.463 195.909,332.606 195.171 C 332.748 194.433,332.993 193.286,333.151 192.622 C 333.874 189.572,334.135 187.081,334.135 183.233 C 334.135 179.385,333.874 176.893,333.151 173.843 C 332.993 173.179,332.748 172.032,332.606 171.294 C 332.463 170.557,332.251 169.832,332.133 169.685 C 332.016 169.537,331.833 169.012,331.727 168.517 C 331.550 167.691,331.087 166.490,330.092 164.279 C 329.883 163.814,329.712 163.315,329.712 163.171 C 329.712 163.027,329.531 162.759,329.309 162.575 C 329.088 162.392,328.907 162.070,328.907 161.861 C 328.907 161.652,328.678 161.154,328.397 160.754 C 328.117 160.354,327.313 159.121,326.611 158.015 C 324.913 155.341,322.922 152.897,320.362 150.342 C 317.423 147.410,311.569 143.360,307.847 141.684 C 305.285 140.530,304.889 140.366,303.689 139.958 C 295.703 137.239,287.496 136.657,279.544 138.246 C 275.326 139.088,271.169 140.383,269.349 141.422 C 269.128 141.548,268.645 141.772,268.276 141.919 C 267.907 142.066,267.425 142.308,267.203 142.456 C 266.982 142.605,266.620 142.809,266.398 142.910 C 265.822 143.173,262.827 144.932,262.508 145.194 C 262.361 145.316,261.455 146.003,260.496 146.722 C 257.915 148.656,258.891 147.701,230.315 176.232 C 205.158 201.349,201.409 204.963,200.512 204.963 C 200.304 204.963,200.134 205.055,200.134 205.168 C 200.134 205.583,195.146 207.646,194.142 207.646 C 193.808 207.646,193.384 207.797,193.200 207.981 C 192.652 208.530,183.858 208.607,182.084 208.079 C 181.314 207.849,180.262 207.545,179.745 207.402 C 174.021 205.817,168.032 200.833,165.047 195.171 C 164.104 193.382,163.380 191.607,163.380 191.081 C 163.380 190.807,163.251 190.455,163.094 190.297 C 161.895 189.098,161.904 177.358,163.105 176.158 C 163.256 176.006,163.380 175.658,163.380 175.384 C 163.380 174.498,164.919 171.281,166.491 168.880 C 169.256 164.656,175.844 159.825,180.013 158.964 C 180.530 158.858,181.470 158.601,182.102 158.393 C 183.784 157.840,191.015 157.874,192.927 158.444 C 193.719 158.680,194.970 159.049,195.708 159.264 C 197.175 159.692,199.947 160.981,200.089 161.301 C 200.139 161.412,200.304 161.502,200.456 161.502 C 201.148 161.502,203.907 163.899,208.930 168.865 C 211.923 171.824,214.542 174.283,214.750 174.329 C 215.195 174.428,228.840 160.861,228.840 160.320 C 228.840 159.790,218.383 149.379,215.879 147.415 C 215.316 146.974,214.712 146.490,214.537 146.339 C 214.362 146.188,213.494 145.601,212.609 145.034 C 211.724 144.468,210.698 143.804,210.329 143.560 C 209.147 142.778,204.657 140.689,202.539 139.936 C 196.618 137.830,187.760 136.844,181.891 137.635 " stroke="none" fill="#060606" fill-rule="evenodd"></path><path id="path1" d="M0.000 134.138 L 0.000 268.276 200.000 268.276 L 400.000 268.276 400.000 134.138 L 400.000 0.000 200.000 0.000 L 0.000 0.000 0.000 134.138 M91.125 35.929 C 93.510 36.212,95.684 36.557,95.954 36.696 C 96.224 36.835,96.983 37.031,97.639 37.131 C 98.296 37.232,98.960 37.413,99.115 37.533 C 99.270 37.654,99.759 37.834,100.201 37.933 C 100.644 38.033,101.368 38.278,101.811 38.478 C 102.254 38.678,103.219 39.107,103.957 39.431 C 107.296 40.897,111.846 43.485,112.095 44.059 C 112.144 44.173,112.298 44.266,112.438 44.266 C 112.701 44.266,114.549 45.676,116.129 47.082 C 118.246 48.967,127.681 58.486,127.974 59.033 C 128.474 59.966,113.597 74.805,112.663 74.305 C 112.329 74.127,109.868 71.792,107.194 69.117 C 102.738 64.659,99.821 61.972,99.440 61.972 C 99.357 61.972,98.770 61.625,98.136 61.201 C 97.501 60.777,96.680 60.338,96.311 60.226 C 95.942 60.113,95.402 59.857,95.111 59.655 C 94.820 59.454,94.360 59.289,94.088 59.289 C 93.816 59.289,93.329 59.141,93.007 58.961 C 90.449 57.528,80.678 57.525,78.153 58.957 C 77.831 59.140,77.367 59.289,77.121 59.289 C 76.876 59.289,76.355 59.469,75.964 59.690 C 75.572 59.910,74.950 60.217,74.581 60.372 C 72.040 61.439,68.289 64.531,66.132 67.337 C 64.552 69.393,61.975 74.490,61.969 75.572 C 61.967 75.838,61.786 76.649,61.567 77.373 C 61.014 79.196,61.015 85.620,61.569 87.190 C 61.791 87.817,61.976 88.587,61.981 88.900 C 61.986 89.214,62.223 89.953,62.508 90.543 C 62.793 91.133,63.031 91.813,63.036 92.053 C 63.041 92.293,63.226 92.640,63.447 92.824 C 63.669 93.007,63.850 93.335,63.850 93.552 C 63.850 93.769,64.091 94.253,64.386 94.628 C 64.681 95.004,64.923 95.462,64.923 95.648 C 64.923 95.834,65.104 96.055,65.325 96.140 C 65.547 96.225,65.728 96.407,65.728 96.545 C 65.728 96.792,66.702 97.981,68.276 99.654 C 70.220 101.720,76.130 105.433,77.475 105.433 C 77.620 105.433,78.085 105.613,78.507 105.833 C 78.930 106.054,79.638 106.236,80.080 106.239 C 80.523 106.242,81.549 106.422,82.361 106.640 C 84.245 107.146,86.915 107.146,88.799 106.640 C 89.611 106.422,90.637 106.242,91.080 106.239 C 91.522 106.236,92.209 106.065,92.604 105.859 C 93.000 105.652,93.694 105.402,94.146 105.303 C 95.760 104.948,99.264 102.876,101.744 100.810 C 102.297 100.349,114.551 88.165,128.974 73.735 C 153.024 49.674,156.794 45.985,158.545 44.802 C 158.873 44.581,159.754 43.947,160.504 43.394 C 161.254 42.840,162.027 42.388,162.221 42.388 C 162.416 42.388,162.575 42.279,162.575 42.146 C 162.575 42.013,162.907 41.768,163.313 41.602 C 163.719 41.435,164.715 40.943,165.526 40.507 C 166.338 40.071,167.213 39.712,167.471 39.709 C 167.730 39.707,167.941 39.590,167.941 39.449 C 167.941 39.309,168.333 39.073,168.813 38.926 C 170.684 38.351,172.405 37.753,173.213 37.396 C 173.678 37.190,174.281 37.021,174.554 37.019 C 174.827 37.018,175.594 36.852,176.258 36.651 C 180.811 35.274,192.518 35.258,196.781 36.623 C 197.371 36.812,198.301 37.044,198.848 37.138 C 199.396 37.233,200.180 37.486,200.592 37.701 C 201.004 37.916,201.543 38.093,201.789 38.094 C 202.035 38.094,202.579 38.262,202.996 38.465 C 203.414 38.668,204.178 39.014,204.695 39.233 C 207.424 40.393,210.996 42.333,212.633 43.545 C 213.268 44.015,214.427 44.854,215.210 45.409 C 217.770 47.226,224.816 54.806,224.816 55.744 C 224.816 55.891,224.997 56.082,225.218 56.167 C 225.439 56.252,225.620 56.440,225.620 56.584 C 225.620 56.729,225.978 57.378,226.416 58.026 C 226.853 58.675,227.336 59.496,227.488 59.851 C 227.641 60.206,227.879 60.677,228.018 60.899 C 228.253 61.274,229.002 62.917,229.792 64.789 C 231.022 67.703,232.059 71.146,232.059 72.312 C 232.059 72.785,232.256 73.700,232.496 74.346 C 233.144 76.086,233.165 87.590,232.525 90.275 C 232.279 91.308,231.948 92.757,231.789 93.494 C 231.268 95.917,230.973 96.970,230.574 97.827 C 230.358 98.292,230.181 98.817,230.181 98.993 C 230.181 99.169,230.017 99.634,229.817 100.026 C 229.616 100.417,228.931 101.764,228.295 103.018 C 226.669 106.220,226.724 106.126,225.032 108.652 C 220.780 114.999,213.964 120.966,207.378 124.107 C 206.271 124.635,205.045 125.237,204.653 125.444 C 204.262 125.652,203.688 125.822,203.379 125.822 C 203.070 125.822,202.817 125.933,202.817 126.069 C 202.817 126.204,202.425 126.401,201.945 126.505 C 201.465 126.609,200.771 126.821,200.402 126.976 C 195.506 129.029,180.737 129.698,176.526 128.059 C 176.304 127.972,175.459 127.747,174.648 127.558 C 172.929 127.158,171.601 126.717,170.535 126.194 C 170.117 125.989,169.658 125.822,169.514 125.822 C 169.117 125.822,164.431 123.710,164.185 123.420 C 164.111 123.333,163.749 123.109,163.380 122.922 C 161.761 122.100,159.741 120.734,157.446 118.910 C 154.356 116.454,143.796 105.869,143.796 105.226 C 143.796 104.688,158.075 90.141,158.603 90.141 C 159.210 90.141,160.134 90.957,164.768 95.589 C 169.617 100.437,172.619 103.045,173.752 103.396 C 174.070 103.495,174.478 103.752,174.657 103.967 C 174.835 104.183,175.200 104.359,175.466 104.359 C 175.733 104.359,176.117 104.526,176.321 104.729 C 176.524 104.933,177.084 105.185,177.565 105.291 C 178.046 105.397,178.764 105.652,179.160 105.859 C 179.555 106.065,180.241 106.236,180.684 106.239 C 181.127 106.242,182.153 106.422,182.964 106.640 C 183.776 106.858,185.225 107.036,186.184 107.036 C 187.143 107.036,188.592 106.858,189.403 106.640 C 190.215 106.422,191.241 106.242,191.683 106.239 C 192.126 106.236,192.798 106.072,193.177 105.875 C 193.556 105.677,194.220 105.429,194.652 105.324 C 195.515 105.115,196.995 104.406,198.659 103.407 C 199.249 103.053,199.943 102.685,200.201 102.591 C 200.459 102.496,200.671 102.329,200.671 102.218 C 200.671 102.108,201.169 101.673,201.777 101.251 C 203.252 100.229,206.221 96.807,207.228 94.970 C 209.862 90.162,210.398 88.137,210.522 82.524 C 210.603 78.838,210.545 77.829,210.207 77.118 C 209.979 76.637,209.788 75.960,209.783 75.613 C 209.778 75.267,209.541 74.500,209.256 73.910 C 208.970 73.320,208.733 72.626,208.728 72.368 C 208.723 72.109,208.601 71.898,208.456 71.898 C 208.311 71.898,208.111 71.572,208.011 71.174 C 207.585 69.476,201.188 61.972,200.166 61.972 C 200.016 61.972,199.374 61.625,198.739 61.201 C 198.105 60.777,197.284 60.338,196.915 60.226 C 196.546 60.113,196.006 59.857,195.715 59.655 C 195.424 59.454,194.963 59.289,194.691 59.289 C 194.419 59.289,193.933 59.141,193.611 58.961 C 191.021 57.510,181.347 57.510,178.757 58.961 C 178.434 59.141,177.970 59.289,177.725 59.289 C 177.480 59.289,176.959 59.469,176.567 59.690 C 176.176 59.910,175.553 60.217,175.184 60.372 C 174.475 60.670,173.944 60.975,172.636 61.839 C 171.555 62.552,171.471 62.617,170.122 63.779 C 169.477 64.334,157.041 76.680,142.487 91.214 C 127.933 105.748,115.603 117.972,115.088 118.379 C 114.573 118.785,113.488 119.602,112.676 120.194 C 111.865 120.786,110.965 121.449,110.676 121.668 C 110.388 121.887,110.062 122.066,109.952 122.066 C 109.842 122.066,109.233 122.413,108.598 122.837 C 107.582 123.517,106.667 123.973,103.421 125.423 C 101.260 126.387,100.621 126.626,100.210 126.626 C 99.964 126.626,99.500 126.774,99.178 126.955 C 97.415 127.944,90.210 129.042,85.490 129.041 C 82.753 129.041,76.268 128.412,75.386 128.062 C 75.164 127.974,74.319 127.747,73.508 127.558 C 71.789 127.158,70.461 126.717,69.395 126.194 C 68.977 125.989,68.518 125.822,68.374 125.822 C 67.632 125.822,61.454 122.703,59.924 121.556 C 59.609 121.320,59.077 120.946,58.743 120.724 C 56.158 119.014,51.744 115.016,49.696 112.530 C 48.201 110.714,46.144 107.947,46.144 107.752 C 46.144 107.683,45.721 106.984,45.205 106.200 C 44.688 105.416,44.266 104.635,44.266 104.466 C 44.266 104.296,44.092 104.013,43.880 103.837 C 43.669 103.661,43.418 103.164,43.323 102.731 C 43.228 102.299,43.052 101.945,42.932 101.945 C 42.812 101.945,42.636 101.613,42.542 101.207 C 42.447 100.801,42.203 100.107,42.001 99.665 C 40.992 97.461,39.974 94.146,39.796 92.481 C 39.713 91.711,39.478 90.563,39.273 89.930 C 38.717 88.218,38.741 76.017,39.302 74.674 C 39.524 74.144,39.705 73.258,39.705 72.705 C 39.705 72.152,39.946 70.944,40.241 70.020 C 40.537 69.096,40.778 68.138,40.778 67.890 C 40.778 67.643,40.955 67.206,41.172 66.919 C 41.389 66.633,41.570 66.176,41.574 65.903 C 41.579 65.631,41.757 65.088,41.970 64.696 C 42.184 64.304,42.866 62.897,43.486 61.569 C 44.106 60.241,44.717 59.115,44.842 59.066 C 44.968 59.016,45.070 58.842,45.070 58.678 C 45.070 58.341,46.437 56.252,46.747 56.114 C 46.858 56.065,46.948 55.908,46.948 55.765 C 46.948 54.142,57.218 44.254,60.630 42.591 C 60.999 42.412,61.364 42.179,61.441 42.075 C 61.518 41.970,61.880 41.751,62.246 41.587 C 62.611 41.423,63.575 40.940,64.386 40.514 C 65.198 40.088,66.058 39.731,66.298 39.722 C 66.539 39.713,66.885 39.524,67.069 39.302 C 67.253 39.081,67.683 38.900,68.025 38.900 C 68.367 38.900,68.720 38.783,68.808 38.639 C 68.897 38.496,69.478 38.247,70.099 38.087 C 70.719 37.927,71.608 37.621,72.073 37.409 C 72.538 37.196,73.240 37.022,73.633 37.022 C 74.026 37.022,74.592 36.892,74.890 36.732 C 76.887 35.663,85.349 35.245,91.125 35.929 M193.819 136.996 C 195.585 137.218,197.214 137.495,197.441 137.612 C 197.668 137.730,198.428 137.909,199.130 138.011 C 199.831 138.112,200.737 138.368,201.142 138.580 C 201.547 138.791,202.025 138.965,202.204 138.965 C 202.513 138.967,203.118 139.205,205.634 140.313 C 208.819 141.716,209.524 142.068,209.524 142.252 C 209.524 142.363,209.676 142.455,209.861 142.455 C 210.241 142.455,213.633 144.598,213.772 144.926 C 213.821 145.042,213.978 145.137,214.121 145.137 C 215.105 145.137,229.913 159.388,229.913 160.335 C 229.913 160.775,217.096 173.895,215.634 174.951 C 214.624 175.681,214.647 175.698,208.679 169.758 C 203.517 164.620,201.518 162.898,199.463 161.823 C 197.984 161.049,195.925 160.161,195.610 160.161 C 195.466 160.161,195.007 159.989,194.589 159.779 C 192.823 158.891,185.731 158.229,184.306 158.820 C 183.900 158.988,182.920 159.226,182.126 159.350 C 178.354 159.940,173.769 162.368,170.533 165.491 C 168.973 166.996,166.600 169.866,166.600 170.247 C 166.600 170.357,166.443 170.638,166.251 170.871 C 166.059 171.104,165.623 171.958,165.282 172.770 C 164.940 173.581,164.537 174.482,164.386 174.771 C 162.579 178.224,162.579 188.241,164.386 191.695 C 164.537 191.984,164.940 192.884,165.282 193.696 C 165.623 194.507,166.059 195.362,166.251 195.595 C 166.443 195.828,166.600 196.108,166.600 196.219 C 166.600 196.626,169.003 199.513,170.659 201.096 C 172.495 202.850,174.855 204.512,176.526 205.227 C 176.895 205.385,177.559 205.677,178.001 205.876 C 182.687 207.986,191.180 208.401,194.589 206.686 C 195.007 206.476,195.526 206.304,195.743 206.304 C 196.415 206.304,200.459 204.173,202.012 203.000 C 202.824 202.387,215.212 190.173,229.543 175.859 C 257.240 148.192,258.627 146.850,261.570 144.869 C 261.899 144.648,262.426 144.276,262.741 144.043 C 263.056 143.810,263.494 143.532,263.716 143.427 C 263.937 143.321,264.601 142.947,265.191 142.596 C 267.073 141.477,270.696 139.772,271.191 139.772 C 271.335 139.772,271.794 139.604,272.212 139.399 C 273.307 138.862,274.636 138.427,276.349 138.045 C 277.174 137.861,277.968 137.637,278.113 137.547 C 278.411 137.363,281.622 136.943,285.703 136.554 C 288.509 136.286,295.100 136.752,297.653 137.399 C 298.243 137.549,299.390 137.819,300.201 138.001 C 301.013 138.182,302.017 138.474,302.432 138.649 C 302.847 138.824,303.337 138.967,303.521 138.967 C 303.704 138.967,304.089 139.144,304.375 139.361 C 304.662 139.578,305.104 139.759,305.357 139.763 C 305.611 139.768,306.275 140.002,306.833 140.282 C 307.391 140.563,308.481 141.075,309.256 141.421 C 310.030 141.766,310.664 142.140,310.664 142.252 C 310.664 142.363,310.816 142.455,311.002 142.455 C 311.287 142.455,314.234 144.244,315.091 144.937 C 315.238 145.056,315.966 145.603,316.708 146.152 C 319.005 147.850,322.663 151.326,324.078 153.154 C 324.447 153.630,324.976 154.285,325.255 154.609 C 325.723 155.153,327.811 158.242,328.555 159.490 C 329.627 161.290,332.126 166.678,332.126 167.190 C 332.126 167.397,332.231 167.680,332.360 167.820 C 332.718 168.212,333.672 171.627,333.966 173.575 C 334.111 174.534,334.357 175.801,334.513 176.392 C 334.670 176.986,334.796 180.040,334.796 183.233 C 334.796 186.425,334.670 189.480,334.513 190.074 C 334.357 190.664,334.111 191.932,333.966 192.891 C 333.672 194.839,332.718 198.253,332.360 198.645 C 332.231 198.785,332.126 199.069,332.126 199.275 C 332.126 199.788,329.627 205.176,328.555 206.975 C 327.811 208.224,325.723 211.313,325.255 211.856 C 324.976 212.180,324.447 212.835,324.078 213.312 C 322.259 215.662,316.007 221.328,315.233 221.328 C 315.081 221.328,314.956 221.452,314.956 221.605 C 314.956 221.757,314.754 221.959,314.506 222.054 C 314.258 222.149,313.463 222.617,312.739 223.094 C 311.490 223.917,308.407 225.499,306.372 226.361 C 305.855 226.580,305.091 226.925,304.673 227.129 C 304.255 227.332,303.712 227.499,303.466 227.500 C 303.220 227.501,302.696 227.670,302.302 227.875 C 301.909 228.081,301.063 228.335,300.424 228.441 C 299.785 228.547,299.051 228.744,298.794 228.880 C 296.248 230.216,282.220 230.260,278.337 228.943 C 277.746 228.743,277.068 228.577,276.828 228.575 C 276.203 228.570,270.628 226.691,269.681 226.168 C 269.425 226.026,268.551 225.592,267.740 225.203 C 265.161 223.968,262.932 222.671,261.435 221.536 C 257.833 218.803,257.038 218.081,250.815 211.888 C 245.410 206.510,245.209 206.245,245.921 205.429 C 246.569 204.686,259.160 192.093,259.887 191.461 C 260.710 190.745,260.936 190.920,266.957 196.910 C 272.011 201.939,274.613 204.097,276.861 205.126 C 278.608 205.926,279.560 206.304,279.823 206.304 C 279.993 206.304,280.452 206.473,280.844 206.679 C 283.456 208.055,292.462 208.060,295.193 206.686 C 295.610 206.476,296.135 206.304,296.359 206.304 C 296.582 206.304,297.085 206.134,297.477 205.926 C 297.869 205.717,298.853 205.219,299.665 204.818 C 301.739 203.794,305.287 200.962,306.517 199.349 C 307.088 198.600,307.651 197.988,307.768 197.988 C 307.885 197.988,307.981 197.878,307.981 197.743 C 307.981 197.608,308.404 196.857,308.920 196.072 C 309.437 195.288,309.859 194.508,309.859 194.338 C 309.859 194.168,310.040 193.879,310.262 193.696 C 310.483 193.512,310.664 193.123,310.664 192.832 C 310.664 192.541,310.834 191.982,311.042 191.591 C 312.911 188.072,312.911 178.394,311.042 174.875 C 310.834 174.483,310.664 173.917,310.664 173.616 C 310.664 173.316,310.554 173.002,310.419 172.918 C 310.284 172.835,309.908 172.219,309.584 171.549 C 308.681 169.684,305.528 165.760,303.991 164.587 C 303.234 164.010,302.616 163.456,302.616 163.356 C 302.616 163.256,302.404 163.097,302.146 163.003 C 301.888 162.908,301.194 162.535,300.604 162.173 C 300.013 161.811,299.229 161.391,298.860 161.239 C 298.491 161.087,297.869 160.782,297.477 160.562 C 297.085 160.341,296.586 160.161,296.368 160.161 C 296.149 160.161,295.624 159.981,295.202 159.760 C 294.779 159.540,294.011 159.353,293.494 159.346 C 292.978 159.339,292.072 159.159,291.482 158.946 C 290.238 158.498,285.672 158.411,284.906 158.821 C 284.629 158.970,283.701 159.201,282.845 159.334 C 281.300 159.574,279.616 160.100,278.068 160.823 C 277.626 161.030,277.082 161.273,276.861 161.362 C 276.335 161.573,275.722 161.948,273.807 163.229 C 272.835 163.879,261.841 174.670,245.235 191.272 C 221.011 215.491,214.969 221.328,214.121 221.328 C 213.978 221.328,213.821 221.421,213.772 221.535 C 213.512 222.134,209.056 224.667,205.634 226.160 C 204.896 226.481,203.951 226.914,203.533 227.121 C 203.115 227.329,202.572 227.499,202.326 227.500 C 202.079 227.501,201.565 227.665,201.182 227.865 C 200.800 228.064,200.015 228.314,199.438 228.420 C 198.862 228.526,197.847 228.778,197.183 228.980 C 192.843 230.300,181.609 230.288,177.280 228.958 C 176.589 228.745,175.849 228.571,175.638 228.571 C 175.064 228.571,171.066 227.235,170.771 226.945 C 170.631 226.807,170.288 226.693,170.008 226.693 C 169.728 226.693,169.179 226.518,168.787 226.303 C 168.396 226.088,167.411 225.600,166.600 225.217 C 164.480 224.217,162.318 222.985,161.234 222.159 C 160.718 221.766,159.782 221.100,159.155 220.679 C 158.528 220.258,158.015 219.809,158.015 219.682 C 158.015 219.554,157.860 219.450,157.672 219.450 C 157.483 219.450,157.141 219.239,156.911 218.981 C 156.682 218.722,155.961 218.013,155.309 217.404 C 152.266 214.558,148.302 209.644,146.820 206.879 C 146.633 206.531,146.241 205.807,145.948 205.269 C 145.655 204.732,145.293 203.991,145.143 203.622 C 144.993 203.253,144.770 202.770,144.647 202.549 C 144.012 201.407,143.528 200.325,143.526 200.045 C 143.525 199.873,143.349 199.395,143.134 198.983 C 142.919 198.571,142.662 197.786,142.564 197.239 C 142.465 196.692,142.272 196.026,142.134 195.760 C 141.910 195.328,141.692 194.268,140.854 189.537 C 140.546 187.799,140.546 178.667,140.854 176.928 C 141.692 172.198,141.910 171.138,142.134 170.705 C 142.272 170.439,142.465 169.774,142.564 169.227 C 142.662 168.680,142.919 167.895,143.134 167.483 C 143.349 167.071,143.525 166.593,143.526 166.420 C 143.528 166.141,144.012 165.058,144.647 163.917 C 144.770 163.696,144.993 163.213,145.143 162.844 C 145.293 162.475,145.655 161.733,145.948 161.196 C 146.241 160.659,146.633 159.934,146.820 159.586 C 149.065 155.398,155.653 148.185,159.893 145.275 C 160.704 144.717,161.549 144.106,161.771 143.916 C 161.992 143.726,162.820 143.229,163.611 142.811 C 164.401 142.394,165.669 141.722,166.428 141.319 C 167.186 140.916,168.018 140.584,168.276 140.581 C 168.535 140.579,168.746 140.469,168.746 140.338 C 168.746 140.206,169.078 140.021,169.484 139.926 C 169.889 139.831,170.584 139.591,171.026 139.393 C 172.307 138.820,173.595 138.405,175.209 138.045 C 176.034 137.861,176.828 137.636,176.974 137.546 C 177.202 137.405,181.883 136.790,185.245 136.459 C 186.732 136.312,190.020 136.518,193.819 136.996 " stroke="none" fill="#fbfbfb" fill-rule="evenodd"></path><path id="path2" d="M79.410 36.388 C 49.245 41.887,32.519 68.620,41.498 96.982 C 45.391 109.281,57.650 122.115,68.769 125.534 C 69.236 125.677,70.342 126.049,71.227 126.360 C 79.113 129.128,90.951 129.128,99.484 126.360 C 103.869 124.937,107.172 123.325,111.469 120.508 C 114.207 118.713,118.549 114.517,142.974 90.057 C 157.350 75.659,169.906 63.281,170.874 62.549 C 174.957 59.463,179.015 57.853,183.769 57.430 L 186.050 57.228 183.927 57.185 C 179.852 57.104,174.883 59.028,170.624 62.336 C 169.665 63.080,157.161 75.412,142.838 89.739 C 116.593 115.991,114.331 118.176,111.444 120.069 C 110.573 120.640,109.799 121.173,109.725 121.252 C 109.470 121.524,104.812 123.907,102.616 124.889 C 100.999 125.612,96.195 126.982,93.628 127.452 C 84.929 129.045,74.681 127.835,66.801 124.284 C 65.694 123.785,64.608 123.263,64.386 123.123 C 64.165 122.983,63.730 122.758,63.419 122.623 C 60.385 121.300,54.348 116.485,50.829 112.582 C 50.045 111.712,47.545 108.465,47.391 108.115 C 47.293 107.894,46.738 106.989,46.156 106.103 C 44.552 103.659,41.851 97.799,41.851 96.762 C 41.851 96.548,41.671 96.027,41.450 95.604 C 41.230 95.181,41.049 94.506,41.048 94.103 C 41.047 93.701,40.880 92.916,40.676 92.360 C 39.303 88.604,39.257 74.410,40.612 72.218 C 40.721 72.041,40.915 71.323,41.043 70.623 C 41.291 69.268,41.937 67.211,42.551 65.821 C 42.756 65.356,42.924 64.862,42.924 64.723 C 42.924 64.346,45.818 58.790,46.689 57.494 C 47.734 55.941,48.666 54.620,48.830 54.460 C 48.906 54.386,49.509 53.662,50.169 52.850 C 53.431 48.846,58.466 44.629,62.660 42.391 C 63.536 41.923,64.433 41.438,64.655 41.313 C 64.876 41.188,65.238 41.017,65.459 40.933 C 65.681 40.850,66.043 40.678,66.264 40.551 C 68.258 39.408,72.132 38.174,76.056 37.433 C 77.089 37.238,78.585 36.945,79.379 36.782 C 81.140 36.421,89.811 36.410,91.482 36.767 C 92.146 36.908,93.414 37.150,94.299 37.304 C 96.546 37.694,101.253 39.076,102.884 39.825 C 105.097 40.841,107.996 42.268,108.115 42.399 C 108.189 42.481,108.853 42.894,109.591 43.318 C 111.584 44.462,114.960 47.088,117.237 49.265 C 120.530 52.414,126.703 58.688,126.960 59.147 C 127.198 59.573,113.671 73.508,113.019 73.508 C 112.874 73.508,110.414 71.184,107.552 68.343 C 102.311 63.143,101.776 62.649,100.073 61.431 C 96.560 58.922,91.406 57.113,87.971 57.184 L 85.983 57.226 88.129 57.431 C 95.191 58.106,98.809 60.177,106.931 68.193 C 110.042 71.264,112.759 73.776,112.969 73.776 C 113.729 73.776,127.507 59.683,127.321 59.096 C 127.061 58.276,115.776 47.279,113.267 45.401 C 110.248 43.141,107.039 41.281,103.896 39.968 C 102.454 39.366,101.033 38.765,100.738 38.632 C 100.075 38.334,96.851 37.465,94.165 36.860 C 92.213 36.421,81.169 36.067,79.410 36.388 M180.416 36.392 C 171.879 37.650,164.069 41.029,157.344 46.375 C 156.311 47.196,143.757 59.582,129.445 73.900 C 115.134 88.218,102.767 100.509,101.965 101.214 C 90.120 111.609,71.351 108.243,63.717 94.356 C 55.087 78.655,65.437 59.006,83.166 57.430 L 85.446 57.228 83.323 57.185 C 82.039 57.160,80.609 57.314,79.702 57.577 C 77.019 58.355,74.992 59.099,74.560 59.466 C 74.327 59.664,74.001 59.826,73.835 59.826 C 72.465 59.826,67.034 64.617,64.772 67.823 C 60.554 73.799,58.808 84.729,61.305 89.518 C 61.523 89.934,61.701 90.447,61.702 90.658 C 61.703 91.017,63.461 94.727,64.190 95.909 C 65.453 97.959,69.571 102.324,70.956 103.083 C 71.295 103.269,72.328 103.880,73.251 104.442 C 75.439 105.773,77.434 106.499,81.154 107.319 C 82.548 107.626,88.623 107.625,90.007 107.317 C 95.118 106.178,97.647 105.042,101.131 102.318 C 102.095 101.564,114.569 89.250,128.850 74.954 C 154.769 49.008,156.994 46.852,160.027 44.749 C 162.169 43.264,166.018 41.046,166.454 41.046 C 166.645 41.046,166.952 40.865,167.136 40.644 C 167.320 40.423,167.670 40.241,167.914 40.241 C 168.158 40.241,168.596 40.087,168.887 39.899 C 169.377 39.582,171.108 38.994,174.557 37.973 C 175.319 37.748,176.707 37.443,177.642 37.296 C 178.578 37.149,179.886 36.912,180.550 36.769 C 181.214 36.626,183.870 36.509,186.452 36.509 C 189.034 36.509,191.690 36.626,192.354 36.769 C 193.018 36.912,194.346 37.151,195.305 37.302 C 197.587 37.659,201.860 38.903,204.024 39.841 C 211.325 43.004,216.983 47.196,221.766 52.985 C 224.343 56.104,224.279 56.022,224.279 56.195 C 224.279 56.277,224.686 56.923,225.183 57.630 C 225.681 58.338,226.172 59.182,226.275 59.505 C 226.377 59.829,226.564 60.094,226.690 60.094 C 226.816 60.094,226.997 60.448,227.092 60.880 C 227.187 61.313,227.438 61.810,227.650 61.986 C 227.862 62.162,228.035 62.506,228.035 62.750 C 228.035 62.994,228.200 63.432,228.402 63.723 C 228.856 64.377,230.594 69.510,230.841 70.925 C 230.941 71.497,231.128 72.161,231.256 72.401 C 231.385 72.641,231.633 73.924,231.807 75.252 C 231.982 76.579,232.213 78.270,232.322 79.007 L 232.520 80.349 232.558 79.056 C 232.661 75.513,230.367 66.738,228.161 62.240 C 221.761 49.189,210.373 40.262,195.976 37.010 C 193.372 36.422,183.006 36.010,180.416 36.392 M188.598 57.430 C 201.639 58.589,210.961 68.920,210.975 82.227 C 210.980 87.870,210.792 88.718,208.413 93.804 C 204.590 101.973,194.974 107.605,185.463 107.245 C 177.355 106.938,173.676 105.003,165.095 96.532 C 161.833 93.312,158.998 90.677,158.796 90.677 C 158.307 90.677,144.333 104.665,144.333 105.155 C 144.333 105.700,154.755 116.118,157.478 118.296 C 177.314 134.158,206.196 131.212,222.163 111.697 C 223.614 109.924,226.080 106.374,226.515 105.433 C 226.617 105.211,227.009 104.487,227.386 103.823 C 229.946 99.311,232.686 89.647,232.558 85.580 L 232.520 84.373 232.313 85.714 C 231.177 93.070,230.481 96.031,229.213 98.900 C 229.008 99.365,228.840 99.858,228.840 99.996 C 228.840 100.434,226.221 105.363,224.971 107.279 C 222.475 111.102,219.327 114.685,216.223 117.236 C 215.416 117.899,214.608 118.563,214.429 118.711 C 213.757 119.267,213.382 119.538,212.207 120.321 C 211.543 120.763,210.939 121.186,210.865 121.260 C 210.582 121.545,205.731 124.025,203.756 124.895 C 202.933 125.257,200.252 126.106,197.854 126.764 C 189.246 129.126,177.318 128.316,169.014 124.805 C 165.868 123.474,160.757 120.594,159.164 119.255 C 158.985 119.104,158.679 118.860,158.485 118.712 C 156.359 117.100,145.060 106.077,144.778 105.340 C 144.626 104.943,158.534 90.956,158.931 91.108 C 159.094 91.171,161.641 93.610,164.591 96.529 C 172.644 104.499,174.633 105.749,181.757 107.319 C 183.146 107.625,189.221 107.625,190.610 107.319 C 200.168 105.213,208.593 97.937,210.191 90.409 C 210.301 89.893,210.498 89.336,210.630 89.172 C 211.022 88.684,211.514 84.815,211.514 82.227 C 211.514 79.638,211.022 75.770,210.630 75.281 C 210.498 75.117,210.307 74.592,210.205 74.113 C 208.962 68.301,201.762 60.872,195.132 58.559 C 191.822 57.405,190.547 57.143,188.441 57.185 L 186.318 57.228 188.598 57.430 M181.757 137.265 C 168.732 138.692,156.515 146.162,148.803 157.415 C 147.967 158.634,147.284 159.679,147.284 159.736 C 147.284 159.794,146.888 160.547,146.404 161.410 C 143.751 166.140,141.674 173.018,141.232 178.538 C 141.109 180.081,141.612 178.006,142.144 174.782 C 142.461 172.856,143.081 170.308,143.546 169.014 C 144.693 165.824,145.054 164.921,145.908 163.112 C 146.430 162.005,146.946 161.037,147.054 160.960 C 147.162 160.884,147.384 160.521,147.547 160.156 C 147.922 159.315,149.060 157.459,149.766 156.539 C 149.879 156.392,150.481 155.607,151.104 154.795 C 153.475 151.708,158.198 147.357,161.863 144.882 C 163.419 143.831,170.338 140.312,170.851 140.310 C 171.051 140.309,171.594 140.136,172.059 139.924 C 173.587 139.229,178.601 138.083,182.160 137.615 C 188.771 136.744,198.506 138.093,204.561 140.717 C 206.352 141.494,209.699 143.144,210.329 143.560 C 210.698 143.804,211.724 144.468,212.609 145.034 C 213.494 145.601,214.362 146.188,214.537 146.339 C 214.712 146.490,215.316 146.974,215.879 147.415 C 218.383 149.379,228.840 159.790,228.840 160.320 C 228.840 160.861,215.195 174.428,214.750 174.329 C 214.542 174.283,211.923 171.824,208.930 168.865 C 203.907 163.899,201.148 161.502,200.456 161.502 C 200.304 161.502,200.139 161.412,200.089 161.301 C 199.947 160.981,197.175 159.692,195.708 159.264 C 194.970 159.049,193.719 158.680,192.927 158.444 C 191.015 157.874,183.784 157.840,182.102 158.393 C 181.470 158.601,180.530 158.858,180.013 158.964 C 175.844 159.825,169.256 164.656,166.491 168.880 C 164.919 171.281,163.380 174.498,163.380 175.384 C 163.380 175.658,163.256 176.006,163.105 176.158 C 161.904 177.358,161.895 189.098,163.094 190.297 C 163.251 190.455,163.380 190.807,163.380 191.081 C 163.380 191.607,164.104 193.382,165.047 195.171 C 168.032 200.833,174.021 205.817,179.745 207.402 C 180.262 207.545,181.314 207.849,182.084 208.079 C 183.858 208.607,192.652 208.530,193.200 207.981 C 193.384 207.797,193.808 207.646,194.142 207.646 C 195.146 207.646,200.134 205.583,200.134 205.168 C 200.134 205.055,200.304 204.963,200.512 204.963 C 201.409 204.963,205.158 201.349,230.315 176.232 C 258.891 147.701,257.915 148.656,260.496 146.722 C 261.455 146.003,262.361 145.316,262.508 145.194 C 262.656 145.073,263.561 144.526,264.520 143.978 C 265.480 143.431,266.445 142.864,266.667 142.718 C 266.888 142.573,267.371 142.329,267.740 142.178 C 268.610 141.820,268.862 141.702,269.349 141.423 C 271.154 140.388,275.323 139.089,279.544 138.246 C 287.496 136.657,295.703 137.239,303.689 139.958 C 306.022 140.752,308.796 142.058,311.469 143.622 C 317.622 147.222,323.009 152.342,326.611 158.015 C 327.313 159.121,328.117 160.354,328.397 160.754 C 328.678 161.154,328.907 161.652,328.907 161.861 C 328.907 162.070,329.088 162.392,329.309 162.575 C 329.531 162.759,329.712 163.027,329.712 163.171 C 329.712 163.315,329.883 163.814,330.092 164.279 C 331.087 166.490,331.550 167.691,331.727 168.517 C 331.833 169.012,332.016 169.537,332.133 169.685 C 332.251 169.832,332.463 170.557,332.606 171.294 C 332.748 172.032,332.993 173.179,333.151 173.843 C 334.507 179.563,334.507 186.902,333.151 192.622 C 332.993 193.286,332.748 194.433,332.606 195.171 C 332.463 195.909,332.251 196.633,332.133 196.781 C 332.016 196.928,331.833 197.454,331.727 197.949 C 331.550 198.775,331.087 199.975,330.092 202.187 C 329.883 202.652,329.712 203.150,329.712 203.294 C 329.712 203.438,329.531 203.706,329.309 203.890 C 329.088 204.074,328.907 204.395,328.907 204.604 C 328.907 204.814,328.678 205.312,328.397 205.712 C 328.117 206.112,327.313 207.344,326.611 208.451 C 325.908 209.557,324.839 211.066,324.236 211.804 C 323.633 212.542,323.018 213.298,322.871 213.484 C 320.002 217.103,313.954 221.735,308.786 224.271 C 303.593 226.820,300.474 227.779,293.897 228.850 C 292.124 229.139,284.296 229.137,282.763 228.848 C 282.099 228.723,280.771 228.489,279.812 228.330 C 276.958 227.854,272.406 226.525,270.918 225.732 C 270.526 225.523,270.028 225.352,269.810 225.352 C 269.593 225.352,269.265 225.171,269.081 224.950 C 268.897 224.728,268.574 224.547,268.363 224.547 C 267.241 224.547,261.068 220.427,257.679 217.416 C 255.385 215.378,246.719 206.671,246.580 206.265 C 246.465 205.930,260.205 192.086,260.652 192.086 C 260.814 192.086,263.290 194.410,266.154 197.252 C 271.532 202.587,271.984 202.998,273.781 204.204 C 276.748 206.192,277.863 206.681,282.554 208.048 C 284.462 208.604,293.233 208.552,293.803 207.981 C 293.988 207.797,294.401 207.646,294.723 207.646 C 295.647 207.646,300.338 205.761,300.738 205.229 C 300.812 205.131,301.444 204.719,302.143 204.313 C 310.970 199.186,315.503 186.376,312.245 175.760 C 309.818 167.848,302.346 160.411,295.371 158.965 C 294.855 158.858,293.916 158.601,293.284 158.393 C 291.695 157.871,284.294 157.871,282.706 158.393 C 282.073 158.601,281.136 158.858,280.623 158.964 C 278.564 159.391,274.163 161.753,271.898 163.646 C 271.455 164.016,259.490 175.909,245.307 190.074 C 219.396 215.954,217.755 217.569,215.878 219.048 C 215.316 219.490,214.712 219.976,214.537 220.127 C 214.362 220.278,213.494 220.864,212.609 221.431 C 211.724 221.998,210.698 222.661,210.329 222.905 C 209.705 223.318,206.404 224.946,204.561 225.750 C 201.790 226.959,197.576 228.065,192.757 228.850 C 190.976 229.140,183.149 229.137,181.623 228.845 C 180.959 228.719,179.390 228.432,178.135 228.208 C 176.881 227.984,175.493 227.683,175.050 227.540 C 174.608 227.397,173.340 227.003,172.233 226.664 C 171.127 226.326,169.983 225.892,169.692 225.700 C 169.401 225.509,168.963 225.352,168.719 225.352 C 168.475 225.352,168.125 225.171,167.941 224.950 C 167.757 224.728,167.450 224.547,167.259 224.547 C 164.949 224.547,154.669 216.357,151.096 211.670 C 150.478 210.858,149.879 210.074,149.766 209.926 C 149.060 209.006,147.922 207.151,147.547 206.310 C 147.384 205.944,147.157 205.582,147.043 205.505 C 146.772 205.322,145.176 201.977,144.545 200.268 C 143.249 196.761,142.653 194.649,142.158 191.818 C 142.016 191.006,141.762 189.618,141.594 188.732 C 141.425 187.847,141.208 185.493,141.113 183.501 L 140.938 179.879 140.900 182.830 C 140.807 190.147,142.992 198.973,146.404 205.056 C 146.888 205.919,147.284 206.671,147.284 206.729 C 147.284 207.444,152.088 213.568,154.641 216.107 C 167.618 229.016,188.824 233.202,204.829 226.014 C 205.272 225.816,206.213 225.398,206.922 225.087 C 208.911 224.213,212.652 221.943,215.023 220.171 C 216.359 219.172,227.550 208.211,244.668 191.134 C 274.686 161.188,274.386 161.459,279.464 159.723 C 301.007 152.359,320.265 173.963,310.386 194.413 C 303.766 208.118,285.949 212.504,273.374 203.524 C 272.562 202.945,269.512 200.104,266.595 197.211 C 263.679 194.318,261.035 191.911,260.719 191.861 C 259.966 191.741,246.278 205.321,246.278 206.187 C 246.278 206.822,256.467 217.038,259.557 219.500 C 272.527 229.835,291.451 232.397,306.372 225.836 C 342.726 209.850,344.051 159.135,308.570 141.689 C 301.753 138.337,296.677 137.223,288.263 137.235 C 276.958 137.250,269.167 139.834,260.094 146.575 C 258.731 147.587,247.909 158.185,230.449 175.602 C 202.503 203.481,201.870 204.075,198.256 205.823 C 187.937 210.814,175.014 207.883,167.975 198.955 C 154.882 182.347,166.427 158.283,187.487 158.283 C 195.660 158.283,199.935 160.455,208.585 169.005 C 211.683 172.067,214.411 174.639,214.647 174.720 C 215.386 174.975,229.511 160.643,229.158 159.996 C 228.624 159.016,217.143 147.893,215.023 146.302 C 205.794 139.374,193.352 135.994,181.757 137.265 " stroke="none" fill="#727474" fill-rule="evenodd"></path><path id="path3" d="M79.231 35.955 C 77.141 36.223,75.188 36.573,74.890 36.732 C 74.592 36.892,74.026 37.022,73.633 37.022 C 73.240 37.022,72.538 37.196,72.073 37.409 C 71.608 37.621,70.719 37.927,70.099 38.087 C 69.478 38.247,68.897 38.496,68.808 38.639 C 68.720 38.783,68.367 38.900,68.025 38.900 C 67.683 38.900,67.253 39.081,67.069 39.302 C 66.885 39.524,66.539 39.713,66.298 39.722 C 66.058 39.731,65.198 40.088,64.386 40.514 C 63.575 40.940,62.611 41.423,62.246 41.587 C 61.880 41.751,61.518 41.970,61.441 42.075 C 61.364 42.179,60.999 42.412,60.630 42.591 C 57.218 44.254,46.948 54.142,46.948 55.765 C 46.948 55.908,46.858 56.065,46.747 56.114 C 46.437 56.252,45.070 58.341,45.070 58.678 C 45.070 58.842,44.968 59.016,44.842 59.066 C 44.717 59.115,44.106 60.241,43.486 61.569 C 42.866 62.897,42.184 64.304,41.970 64.696 C 41.757 65.088,41.579 65.631,41.574 65.903 C 41.570 66.176,41.389 66.633,41.172 66.919 C 40.955 67.206,40.778 67.643,40.778 67.890 C 40.778 68.138,40.537 69.096,40.241 70.020 C 39.946 70.944,39.723 72.197,39.745 72.805 C 39.778 73.710,39.806 73.764,39.899 73.105 C 40.703 67.411,44.423 59.395,48.999 53.495 C 64.561 33.435,95.230 30.110,114.742 46.368 C 116.950 48.208,127.298 58.555,127.527 59.152 C 127.812 59.895,113.611 74.116,112.818 73.882 C 112.518 73.794,109.859 71.318,106.908 68.380 C 100.381 61.881,98.245 60.307,93.991 58.858 C 80.793 54.364,67.715 60.453,62.243 73.642 C 58.975 81.516,61.173 92.531,67.337 99.169 C 71.354 103.495,78.595 107.160,82.847 107.018 C 83.817 106.986,81.199 106.250,80.080 106.241 C 79.638 106.237,78.930 106.054,78.507 105.833 C 78.085 105.613,77.620 105.433,77.475 105.433 C 76.130 105.433,70.220 101.720,68.276 99.654 C 66.702 97.981,65.728 96.792,65.728 96.545 C 65.728 96.407,65.547 96.225,65.325 96.140 C 65.104 96.055,64.923 95.834,64.923 95.648 C 64.923 95.462,64.681 95.004,64.386 94.628 C 64.091 94.253,63.850 93.769,63.850 93.552 C 63.850 93.335,63.669 93.007,63.447 92.824 C 63.226 92.640,63.041 92.293,63.036 92.053 C 63.031 91.813,62.793 91.133,62.508 90.543 C 62.223 89.953,61.986 89.214,61.981 88.900 C 61.976 88.587,61.791 87.817,61.569 87.190 C 61.015 85.620,61.014 79.196,61.567 77.373 C 61.786 76.649,61.967 75.838,61.969 75.572 C 61.975 74.490,64.552 69.393,66.132 67.337 C 68.289 64.531,72.040 61.439,74.581 60.372 C 74.950 60.217,75.572 59.910,75.964 59.690 C 76.355 59.469,76.876 59.289,77.121 59.289 C 77.367 59.289,77.831 59.140,78.153 58.957 C 80.678 57.525,90.449 57.528,93.007 58.961 C 93.329 59.141,93.816 59.289,94.088 59.289 C 94.360 59.289,94.820 59.454,95.111 59.655 C 95.402 59.857,95.942 60.113,96.311 60.226 C 96.680 60.338,97.501 60.777,98.136 61.201 C 98.770 61.625,99.357 61.972,99.440 61.972 C 99.821 61.972,102.738 64.659,107.194 69.117 C 109.868 71.792,112.329 74.127,112.663 74.305 C 113.597 74.805,128.474 59.966,127.974 59.033 C 127.681 58.486,118.246 48.967,116.129 47.082 C 114.549 45.676,112.701 44.266,112.438 44.266 C 112.298 44.266,112.144 44.173,112.095 44.059 C 111.846 43.485,107.296 40.897,103.957 39.431 C 103.219 39.107,102.254 38.678,101.811 38.478 C 101.368 38.278,100.644 38.033,100.201 37.933 C 99.759 37.834,99.270 37.654,99.115 37.533 C 98.960 37.413,98.296 37.232,97.639 37.131 C 96.983 37.031,96.224 36.835,95.954 36.696 C 93.953 35.667,84.685 35.257,79.231 35.955 M180.416 35.954 C 178.350 36.221,176.320 36.570,175.905 36.731 C 175.489 36.891,174.904 37.022,174.604 37.022 C 174.304 37.022,173.678 37.190,173.213 37.396 C 172.405 37.753,170.684 38.351,168.813 38.926 C 168.333 39.073,167.941 39.309,167.941 39.449 C 167.941 39.590,167.730 39.707,167.471 39.709 C 167.213 39.712,166.338 40.071,165.526 40.507 C 164.715 40.943,163.719 41.435,163.313 41.602 C 162.907 41.768,162.575 42.013,162.575 42.146 C 162.575 42.279,162.416 42.388,162.221 42.388 C 162.027 42.388,161.254 42.840,160.504 43.394 C 159.754 43.947,158.873 44.581,158.545 44.802 C 156.794 45.985,153.024 49.674,128.974 73.735 C 114.551 88.165,102.297 100.349,101.744 100.810 C 99.264 102.876,95.760 104.948,94.146 105.303 C 93.694 105.402,93.000 105.652,92.604 105.859 C 92.209 106.065,91.522 106.237,91.080 106.241 C 89.827 106.252,87.332 106.987,88.442 107.018 C 91.216 107.097,97.171 104.757,100.410 102.317 C 101.328 101.625,114.393 88.784,129.443 73.782 C 146.214 57.064,157.561 45.957,158.755 45.090 C 161.678 42.966,164.645 41.253,167.584 39.993 C 169.035 39.371,170.463 38.759,170.758 38.632 C 178.391 35.358,191.781 35.176,201.037 38.221 C 216.560 43.327,228.548 56.780,231.885 72.837 C 231.947 73.132,232.011 72.941,232.028 72.413 C 232.068 71.189,231.099 67.886,229.792 64.789 C 229.002 62.917,228.253 61.274,228.018 60.899 C 227.879 60.677,227.641 60.206,227.488 59.851 C 227.336 59.496,226.853 58.675,226.416 58.026 C 225.978 57.378,225.620 56.729,225.620 56.584 C 225.620 56.440,225.439 56.252,225.218 56.167 C 224.997 56.082,224.816 55.891,224.816 55.744 C 224.816 54.806,217.770 47.226,215.210 45.409 C 214.427 44.854,213.268 44.015,212.633 43.545 C 210.996 42.333,207.424 40.393,204.695 39.233 C 204.178 39.014,203.414 38.668,202.996 38.465 C 202.579 38.262,202.035 38.094,201.789 38.094 C 201.543 38.093,200.993 37.910,200.568 37.689 C 200.143 37.467,199.298 37.210,198.690 37.117 C 198.083 37.024,197.364 36.835,197.094 36.696 C 195.097 35.669,185.815 35.256,180.416 35.954 M180.952 57.956 C 173.457 59.688,174.855 58.500,143.528 89.749 C 128.551 104.688,115.875 117.263,115.359 117.694 C 109.263 122.781,103.125 125.806,94.970 127.743 C 91.474 128.573,80.104 128.660,76.459 127.885 C 73.843 127.329,70.791 126.471,69.618 125.962 C 69.175 125.770,68.540 125.531,68.206 125.430 C 53.893 121.112,40.914 103.771,39.184 86.653 L 38.981 84.641 38.941 86.711 C 38.918 87.864,39.065 89.290,39.273 89.930 C 39.478 90.563,39.713 91.711,39.796 92.481 C 39.974 94.146,40.992 97.461,42.001 99.665 C 42.203 100.107,42.447 100.801,42.542 101.207 C 42.636 101.613,42.812 101.945,42.932 101.945 C 43.052 101.945,43.228 102.299,43.323 102.731 C 43.418 103.164,43.669 103.661,43.880 103.837 C 44.092 104.013,44.266 104.296,44.266 104.466 C 44.266 104.635,44.688 105.416,45.205 106.200 C 45.721 106.984,46.144 107.683,46.144 107.752 C 46.144 107.947,48.201 110.714,49.696 112.530 C 51.744 115.016,56.158 119.014,58.743 120.724 C 59.077 120.946,59.609 121.320,59.924 121.556 C 61.454 122.703,67.632 125.822,68.374 125.822 C 68.518 125.822,68.977 125.989,69.395 126.194 C 70.461 126.717,71.789 127.158,73.508 127.558 C 74.319 127.747,75.164 127.974,75.386 128.062 C 76.268 128.412,82.753 129.041,85.490 129.041 C 90.210 129.042,97.415 127.944,99.178 126.955 C 99.500 126.774,99.964 126.626,100.210 126.626 C 100.621 126.626,101.260 126.387,103.421 125.423 C 106.667 123.973,107.582 123.517,108.598 122.837 C 109.233 122.413,109.842 122.066,109.952 122.066 C 110.062 122.066,110.388 121.887,110.676 121.668 C 110.965 121.449,111.865 120.786,112.676 120.194 C 113.488 119.602,114.573 118.785,115.088 118.379 C 115.603 117.972,127.933 105.748,142.487 91.214 C 157.041 76.680,169.477 64.334,170.122 63.779 C 171.471 62.617,171.555 62.552,172.636 61.839 C 173.944 60.975,174.475 60.670,175.184 60.372 C 175.553 60.217,176.176 59.910,176.567 59.690 C 176.959 59.469,177.480 59.289,177.725 59.289 C 177.970 59.289,178.434 59.141,178.757 58.961 C 179.879 58.332,183.119 57.846,186.184 57.846 C 189.249 57.846,192.489 58.332,193.611 58.961 C 193.933 59.141,194.419 59.289,194.691 59.289 C 194.963 59.289,195.424 59.454,195.715 59.655 C 196.006 59.857,196.546 60.113,196.915 60.226 C 197.284 60.338,198.105 60.777,198.739 61.201 C 199.374 61.625,200.016 61.972,200.166 61.972 C 201.188 61.972,207.585 69.476,208.011 71.174 C 208.111 71.572,208.311 71.898,208.456 71.898 C 208.601 71.898,208.723 72.109,208.728 72.368 C 208.733 72.626,208.970 73.320,209.256 73.910 C 209.541 74.500,209.778 75.247,209.783 75.569 C 209.795 76.345,210.300 77.650,210.508 77.442 C 211.010 76.940,208.699 71.161,206.925 68.485 C 201.369 60.099,190.589 55.729,180.952 57.956 M232.225 74.715 C 232.320 75.453,232.486 76.660,232.593 77.398 L 232.788 78.739 232.806 76.995 C 232.815 76.036,232.650 74.829,232.438 74.313 L 232.053 73.374 232.225 74.715 M39.195 74.889 C 39.033 75.354,38.918 76.712,38.941 77.907 L 38.981 80.080 39.182 78.068 C 39.293 76.962,39.472 75.604,39.579 75.050 C 39.818 73.825,39.598 73.733,39.195 74.889 M210.552 82.361 C 210.393 88.156,209.865 90.158,207.228 94.970 C 206.221 96.807,203.252 100.229,201.777 101.251 C 201.169 101.673,200.671 102.108,200.671 102.218 C 200.671 102.329,200.459 102.496,200.201 102.591 C 199.943 102.685,199.249 103.053,198.659 103.407 C 196.995 104.406,195.515 105.115,194.652 105.324 C 194.220 105.429,193.556 105.677,193.177 105.875 C 192.798 106.072,192.126 106.237,191.683 106.241 C 190.431 106.252,187.936 106.987,189.046 107.018 C 190.032 107.046,192.676 106.423,194.702 105.685 C 205.351 101.805,212.131 91.051,210.928 79.946 C 210.684 77.689,210.680 77.713,210.552 82.361 M232.966 82.227 C 232.967 83.997,233.010 84.687,233.063 83.759 C 233.115 82.831,233.115 81.382,233.062 80.539 C 233.009 79.697,232.966 80.456,232.966 82.227 M232.553 87.190 C 231.706 94.263,229.454 100.976,226.163 106.237 C 226.025 106.459,225.584 107.183,225.183 107.847 C 221.733 113.560,214.440 120.113,207.780 123.483 C 199.959 127.441,195.938 128.368,186.586 128.369 C 179.152 128.370,175.333 127.807,171.026 126.075 C 165.602 123.893,162.259 122.092,158.621 119.391 C 156.134 117.545,144.682 106.471,144.324 105.567 C 144.078 104.943,158.023 90.677,158.879 90.677 C 159.135 90.677,161.610 92.944,164.380 95.715 C 172.526 103.864,178.146 107.195,183.451 107.018 C 184.421 106.986,181.803 106.250,180.684 106.241 C 180.241 106.237,179.555 106.065,179.160 105.859 C 178.764 105.652,178.046 105.397,177.565 105.291 C 177.084 105.185,176.524 104.933,176.321 104.729 C 176.117 104.526,175.733 104.359,175.466 104.359 C 175.200 104.359,174.835 104.183,174.657 103.967 C 174.478 103.752,174.070 103.495,173.752 103.396 C 172.619 103.045,169.617 100.437,164.768 95.589 C 160.134 90.957,159.210 90.141,158.603 90.141 C 158.075 90.141,143.796 104.688,143.796 105.226 C 143.796 105.869,154.356 116.454,157.446 118.910 C 159.741 120.734,161.761 122.100,163.380 122.922 C 163.749 123.109,164.111 123.333,164.185 123.420 C 164.431 123.710,169.117 125.822,169.514 125.822 C 169.658 125.822,170.117 125.989,170.535 126.194 C 171.601 126.717,172.929 127.158,174.648 127.558 C 175.459 127.747,176.304 127.972,176.526 128.059 C 180.737 129.698,195.506 129.029,200.402 126.976 C 200.771 126.821,201.465 126.609,201.945 126.505 C 202.425 126.401,202.817 126.204,202.817 126.069 C 202.817 125.933,203.070 125.822,203.379 125.822 C 203.688 125.822,204.262 125.652,204.653 125.444 C 205.045 125.237,206.271 124.635,207.378 124.107 C 213.964 120.966,220.780 114.999,225.032 108.652 C 226.724 106.126,226.669 106.220,228.295 103.018 C 228.931 101.764,229.616 100.417,229.817 100.026 C 230.017 99.634,230.181 99.169,230.181 98.993 C 230.181 98.817,230.358 98.292,230.574 97.827 C 230.971 96.974,231.260 95.946,231.792 93.494 C 231.952 92.757,232.269 91.308,232.496 90.275 C 232.723 89.242,232.869 87.793,232.819 87.056 L 232.730 85.714 232.553 87.190 M84.574 107.238 C 85.127 107.296,86.033 107.296,86.586 107.238 C 87.140 107.180,86.687 107.132,85.580 107.132 C 84.474 107.132,84.021 107.180,84.574 107.238 M185.178 107.238 C 185.731 107.296,186.636 107.296,187.190 107.238 C 187.743 107.180,187.290 107.132,186.184 107.132 C 185.077 107.132,184.624 107.180,185.178 107.238 M185.245 136.459 C 181.883 136.790,177.202 137.405,176.974 137.546 C 176.828 137.636,176.034 137.861,175.209 138.045 C 173.595 138.405,172.307 138.820,171.026 139.393 C 170.584 139.591,169.889 139.831,169.484 139.926 C 169.078 140.021,168.746 140.206,168.746 140.338 C 168.746 140.469,168.535 140.579,168.276 140.581 C 168.018 140.584,167.186 140.916,166.428 141.319 C 165.669 141.722,164.401 142.394,163.611 142.811 C 162.820 143.229,161.992 143.726,161.771 143.916 C 161.549 144.106,160.704 144.717,159.893 145.275 C 155.653 148.185,149.065 155.398,146.820 159.586 C 146.633 159.934,146.241 160.659,145.948 161.196 C 145.655 161.733,145.293 162.475,145.143 162.844 C 144.993 163.213,144.770 163.696,144.647 163.917 C 144.012 165.058,143.528 166.141,143.526 166.420 C 143.525 166.593,143.349 167.071,143.134 167.483 C 142.919 167.895,142.662 168.680,142.564 169.227 C 142.465 169.774,142.272 170.439,142.134 170.705 C 141.910 171.138,141.692 172.198,140.854 176.928 C 140.546 178.667,140.546 187.799,140.854 189.537 C 141.692 194.268,141.910 195.328,142.134 195.760 C 142.272 196.026,142.465 196.692,142.564 197.239 C 142.662 197.786,142.919 198.571,143.134 198.983 C 143.349 199.395,143.525 199.873,143.526 200.045 C 143.528 200.325,144.012 201.407,144.647 202.549 C 144.770 202.770,144.993 203.253,145.143 203.622 C 145.293 203.991,145.655 204.732,145.948 205.269 C 146.241 205.807,146.633 206.531,146.820 206.879 C 148.302 209.644,152.266 214.558,155.309 217.404 C 155.961 218.013,156.682 218.722,156.911 218.981 C 157.141 219.239,157.483 219.450,157.672 219.450 C 157.860 219.450,158.015 219.554,158.015 219.682 C 158.015 219.809,158.528 220.258,159.155 220.679 C 159.782 221.100,160.718 221.766,161.234 222.159 C 162.318 222.985,164.480 224.217,166.600 225.217 C 167.411 225.600,168.396 226.088,168.787 226.303 C 169.179 226.518,169.728 226.693,170.008 226.693 C 170.288 226.693,170.631 226.807,170.771 226.945 C 171.066 227.235,175.064 228.571,175.638 228.571 C 175.849 228.571,176.589 228.745,177.280 228.958 C 181.609 230.288,192.843 230.300,197.183 228.980 C 197.847 228.778,198.862 228.526,199.438 228.420 C 200.015 228.314,200.800 228.064,201.182 227.865 C 201.565 227.665,202.079 227.501,202.326 227.500 C 202.572 227.499,203.115 227.329,203.533 227.121 C 203.951 226.914,204.896 226.481,205.634 226.160 C 209.056 224.667,213.512 222.134,213.772 221.535 C 213.821 221.421,213.978 221.328,214.121 221.328 C 214.969 221.328,221.011 215.491,245.235 191.272 C 261.841 174.670,272.835 163.879,273.807 163.229 C 275.722 161.948,276.335 161.573,276.861 161.362 C 277.082 161.273,277.626 161.030,278.068 160.823 C 279.618 160.099,281.301 159.574,282.853 159.333 C 284.581 159.064,285.770 158.574,284.730 158.559 C 283.099 158.537,278.609 160.013,276.190 161.367 C 273.021 163.141,271.589 164.505,244.685 191.359 C 214.263 221.726,214.054 221.912,206.495 225.451 C 196.127 230.306,180.267 230.917,171.254 226.810 C 170.789 226.599,170.305 226.425,170.179 226.425 C 168.120 226.425,159.085 220.568,154.972 216.566 C 152.245 213.912,147.284 207.710,147.284 206.954 C 147.284 206.868,146.887 206.113,146.401 205.277 C 139.060 192.628,139.060 173.838,146.401 161.189 C 146.887 160.353,147.284 159.597,147.284 159.511 C 147.284 158.395,153.681 150.895,157.478 147.558 C 169.954 136.597,190.365 133.789,205.970 140.887 C 206.892 141.307,207.719 141.650,207.807 141.650 C 208.214 141.650,213.198 144.766,215.202 146.273 C 218.064 148.427,229.065 159.227,229.284 160.099 C 229.471 160.843,215.748 174.916,214.836 174.916 C 214.583 174.916,212.106 172.647,209.332 169.875 C 203.642 164.186,201.551 162.438,198.894 161.146 C 194.931 159.220,192.062 158.497,188.062 158.416 L 184.977 158.354 187.659 158.562 C 190.980 158.819,193.591 159.277,194.589 159.779 C 195.007 159.989,195.466 160.161,195.610 160.161 C 195.925 160.161,197.984 161.049,199.463 161.823 C 201.518 162.898,203.517 164.620,208.679 169.758 C 214.647 175.698,214.624 175.681,215.634 174.951 C 217.096 173.895,229.913 160.775,229.913 160.335 C 229.913 159.388,215.105 145.137,214.121 145.137 C 213.978 145.137,213.821 145.042,213.772 144.926 C 213.633 144.598,210.241 142.455,209.861 142.455 C 209.676 142.455,209.524 142.363,209.524 142.252 C 209.524 142.068,208.819 141.716,205.634 140.313 C 203.118 139.205,202.513 138.967,202.204 138.965 C 202.025 138.965,201.547 138.791,201.142 138.580 C 200.737 138.368,199.831 138.112,199.130 138.011 C 198.428 137.909,197.668 137.730,197.441 137.612 C 196.450 137.101,187.409 136.246,185.245 136.459 M286.385 136.457 C 282.905 136.805,278.341 137.406,278.114 137.546 C 277.968 137.636,277.174 137.861,276.349 138.045 C 274.636 138.427,273.307 138.862,272.212 139.399 C 271.794 139.604,271.335 139.772,271.191 139.772 C 270.696 139.772,267.073 141.477,265.191 142.596 C 264.601 142.947,263.937 143.321,263.716 143.427 C 263.494 143.532,263.056 143.810,262.741 144.043 C 262.426 144.276,261.899 144.648,261.570 144.869 C 258.627 146.850,257.240 148.192,229.543 175.859 C 215.212 190.173,202.824 202.387,202.012 203.000 C 200.459 204.173,196.415 206.304,195.743 206.304 C 195.526 206.304,195.007 206.476,194.589 206.686 C 191.180 208.401,182.687 207.986,178.001 205.876 C 177.559 205.677,176.895 205.385,176.526 205.227 C 174.855 204.512,172.495 202.850,170.659 201.096 C 169.003 199.513,166.600 196.626,166.600 196.219 C 166.600 196.108,166.443 195.828,166.251 195.595 C 166.059 195.362,165.623 194.507,165.282 193.696 C 164.940 192.884,164.537 191.984,164.386 191.695 C 162.579 188.241,162.579 178.224,164.386 174.771 C 164.537 174.482,164.940 173.581,165.282 172.770 C 165.623 171.958,166.059 171.104,166.251 170.871 C 166.443 170.638,166.600 170.357,166.600 170.247 C 166.600 169.866,168.973 166.996,170.533 165.491 C 173.815 162.324,178.353 159.939,182.249 159.333 C 183.968 159.065,185.168 158.574,184.139 158.559 C 176.535 158.451,166.861 166.559,163.748 175.649 L 162.758 178.538 162.758 183.233 L 162.758 187.928 163.748 190.816 C 169.414 207.360,188.942 213.486,202.549 202.987 C 203.508 202.247,216.218 189.714,230.794 175.137 C 256.711 149.217,258.927 147.094,262.777 144.478 C 274.254 136.679,291.327 134.709,304.359 139.680 C 315.809 144.048,324.960 152.401,330.030 163.112 C 332.244 167.788,332.813 169.624,334.131 176.332 C 334.406 177.732,334.541 180.005,334.541 183.233 C 334.541 186.461,334.406 188.734,334.131 190.133 C 332.813 196.842,332.244 198.678,330.030 203.353 C 323.998 216.097,312.124 225.518,298.232 228.583 C 290.325 230.328,278.304 229.503,272.394 226.810 C 271.929 226.599,271.429 226.425,271.283 226.425 C 270.436 226.425,263.217 222.398,260.765 220.558 C 257.653 218.223,246.468 207.327,246.149 206.321 C 245.915 205.585,259.663 191.549,260.617 191.549 C 260.923 191.549,263.293 193.698,266.513 196.894 C 272.772 203.106,273.015 203.317,275.655 204.821 C 293.895 215.216,315.879 199.871,312.541 179.074 C 310.668 167.404,300.557 158.655,288.665 158.416 L 285.580 158.354 288.263 158.540 C 289.738 158.642,291.367 158.867,291.883 159.041 C 292.398 159.214,293.183 159.357,293.627 159.358 C 294.070 159.359,294.779 159.540,295.202 159.760 C 295.624 159.981,296.149 160.161,296.368 160.161 C 296.586 160.161,297.085 160.341,297.477 160.562 C 297.869 160.782,298.491 161.087,298.860 161.239 C 299.229 161.391,300.013 161.811,300.604 162.173 C 301.194 162.535,301.888 162.908,302.146 163.003 C 302.404 163.097,302.616 163.256,302.616 163.356 C 302.616 163.456,303.234 164.010,303.991 164.587 C 305.528 165.760,308.681 169.684,309.584 171.549 C 309.908 172.219,310.284 172.835,310.419 172.918 C 310.554 173.002,310.664 173.316,310.664 173.616 C 310.664 173.917,310.834 174.483,311.042 174.875 C 312.911 178.394,312.911 188.072,311.042 191.591 C 310.834 191.982,310.664 192.541,310.664 192.832 C 310.664 193.123,310.483 193.512,310.262 193.696 C 310.040 193.879,309.859 194.168,309.859 194.338 C 309.859 194.508,309.437 195.288,308.920 196.072 C 308.404 196.857,307.981 197.608,307.981 197.743 C 307.981 197.878,307.885 197.988,307.768 197.988 C 307.651 197.988,307.088 198.600,306.517 199.349 C 305.287 200.962,301.739 203.794,299.665 204.818 C 298.853 205.219,297.869 205.717,297.477 205.926 C 297.085 206.134,296.582 206.304,296.359 206.304 C 296.135 206.304,295.610 206.476,295.193 206.686 C 292.462 208.060,283.456 208.055,280.844 206.679 C 280.452 206.473,279.993 206.304,279.823 206.304 C 279.560 206.304,278.608 205.926,276.861 205.126 C 274.613 204.097,272.011 201.939,266.957 196.910 C 260.936 190.920,260.710 190.745,259.887 191.461 C 259.160 192.093,246.569 204.686,245.921 205.429 C 245.209 206.245,245.410 206.510,250.815 211.888 C 257.038 218.081,257.833 218.803,261.435 221.536 C 262.932 222.671,265.161 223.968,267.740 225.203 C 268.551 225.592,269.425 226.026,269.681 226.168 C 270.628 226.691,276.203 228.570,276.828 228.575 C 277.068 228.577,277.746 228.743,278.337 228.943 C 282.220 230.260,296.248 230.216,298.794 228.880 C 299.051 228.744,299.785 228.547,300.424 228.441 C 301.063 228.335,301.909 228.081,302.302 227.875 C 302.696 227.670,303.220 227.501,303.466 227.500 C 303.712 227.499,304.255 227.332,304.673 227.129 C 305.091 226.925,305.855 226.580,306.372 226.361 C 308.407 225.499,311.490 223.917,312.739 223.094 C 313.463 222.617,314.258 222.149,314.506 222.054 C 314.754 221.959,314.956 221.757,314.956 221.605 C 314.956 221.452,315.081 221.328,315.233 221.328 C 316.007 221.328,322.259 215.662,324.078 213.312 C 324.447 212.835,324.976 212.180,325.255 211.856 C 325.723 211.313,327.811 208.224,328.555 206.975 C 329.627 205.176,332.126 199.788,332.126 199.275 C 332.126 199.069,332.231 198.785,332.360 198.645 C 332.718 198.253,333.672 194.839,333.966 192.891 C 334.111 191.932,334.357 190.664,334.513 190.074 C 334.670 189.480,334.796 186.425,334.796 183.233 C 334.796 180.040,334.670 176.986,334.513 176.392 C 334.357 175.801,334.111 174.534,333.966 173.575 C 333.672 171.627,332.718 168.212,332.360 167.820 C 332.231 167.680,332.126 167.397,332.126 167.190 C 332.126 166.678,329.627 161.290,328.555 159.490 C 327.811 158.242,325.723 155.153,325.255 154.609 C 324.976 154.285,324.447 153.630,324.078 153.154 C 322.663 151.326,319.005 147.850,316.708 146.152 C 315.966 145.603,315.238 145.056,315.091 144.937 C 314.234 144.244,311.287 142.455,311.002 142.455 C 310.816 142.455,310.664 142.363,310.664 142.252 C 310.664 142.140,310.030 141.766,309.256 141.421 C 308.481 141.075,307.391 140.563,306.833 140.282 C 306.275 140.002,305.611 139.768,305.357 139.763 C 305.104 139.759,304.662 139.578,304.375 139.361 C 304.089 139.144,303.666 138.966,303.436 138.965 C 303.206 138.965,302.704 138.800,302.320 138.599 C 301.936 138.399,301.030 138.146,300.308 138.038 C 299.585 137.930,298.796 137.735,298.554 137.606 C 297.619 137.105,288.507 136.245,286.385 136.457 " stroke="none" fill="#a5a6a6" fill-rule="evenodd"></path><path id="path4" d="M83.769 36.147 C 84.618 36.201,86.006 36.201,86.854 36.147 C 87.703 36.094,87.009 36.050,85.312 36.050 C 83.615 36.050,82.921 36.094,83.769 36.147 M184.909 36.147 C 185.758 36.201,187.146 36.201,187.995 36.147 C 188.843 36.094,188.149 36.050,186.452 36.050 C 184.755 36.050,184.061 36.094,184.909 36.147 M50.690 51.442 L 49.765 52.448 50.771 51.523 C 51.708 50.663,51.901 50.436,51.696 50.436 C 51.651 50.436,51.198 50.889,50.690 51.442 M120.177 66.936 C 116.262 70.846,113.124 74.044,113.204 74.044 C 113.285 74.044,116.548 70.845,120.456 66.935 C 124.364 63.025,127.502 59.826,127.429 59.827 C 127.357 59.828,124.093 63.027,120.177 66.936 M203.879 64.722 C 204.537 65.423,205.110 65.996,205.153 65.996 C 205.355 65.996,205.142 65.755,203.957 64.643 L 202.683 63.447 203.879 64.722 M159.623 73.441 L 150.637 82.495 159.691 73.509 C 164.671 68.567,168.746 64.493,168.746 64.455 C 168.746 64.266,167.974 65.026,159.623 73.441 M105.567 67.069 C 106.740 68.249,107.761 69.215,107.834 69.215 C 107.908 69.215,107.009 68.249,105.835 67.069 C 104.662 65.889,103.641 64.923,103.567 64.923 C 103.493 64.923,104.393 65.889,105.567 67.069 M110.127 71.630 C 111.301 72.810,112.321 73.776,112.395 73.776 C 112.469 73.776,111.569 72.810,110.396 71.630 C 109.222 70.449,108.202 69.484,108.128 69.484 C 108.054 69.484,108.954 70.449,110.127 71.630 M232.701 82.227 C 232.702 84.292,232.744 85.102,232.795 84.026 C 232.846 82.950,232.846 81.259,232.794 80.270 C 232.743 79.280,232.701 80.161,232.701 82.227 M60.698 80.617 C 60.701 81.207,60.756 81.417,60.820 81.083 C 60.884 80.750,60.882 80.267,60.815 80.010 C 60.748 79.754,60.695 80.027,60.698 80.617 M38.997 82.361 C 38.997 83.763,39.042 84.336,39.097 83.635 C 39.153 82.934,39.153 81.787,39.097 81.087 C 39.042 80.386,38.997 80.959,38.997 82.361 M148.216 84.842 L 146.076 87.056 148.290 84.916 C 149.507 83.739,150.503 82.743,150.503 82.702 C 150.503 82.507,150.204 82.787,148.216 84.842 M60.704 83.970 C 60.704 84.634,60.756 84.906,60.820 84.574 C 60.884 84.242,60.884 83.699,60.820 83.367 C 60.756 83.035,60.704 83.307,60.704 83.970 M143.656 89.403 L 141.516 91.616 143.729 89.476 C 145.785 87.489,146.065 87.190,145.869 87.190 C 145.829 87.190,144.833 88.186,143.656 89.403 M140.040 92.958 C 139.389 93.622,138.916 94.165,138.990 94.165 C 139.063 94.165,139.657 93.622,140.309 92.958 C 140.960 92.294,141.433 91.751,141.359 91.751 C 141.285 91.751,140.692 92.294,140.040 92.958 M136.412 96.647 L 134.272 98.860 136.486 96.720 C 137.703 95.543,138.699 94.547,138.699 94.507 C 138.699 94.311,138.400 94.591,136.412 96.647 M130.919 102.079 C 130.267 102.743,129.794 103.286,129.868 103.286 C 129.942 103.286,130.535 102.743,131.187 102.079 C 131.839 101.415,132.312 100.872,132.238 100.872 C 132.164 100.872,131.570 101.415,130.919 102.079 M128.236 104.762 C 127.584 105.426,127.112 105.969,127.185 105.969 C 127.259 105.969,127.853 105.426,128.504 104.762 C 129.156 104.098,129.629 103.555,129.555 103.555 C 129.481 103.555,128.888 104.098,128.236 104.762 M144.333 105.592 C 144.333 105.729,146.596 108.073,149.363 110.801 L 154.393 115.761 149.430 110.674 C 146.700 107.876,144.437 105.532,144.400 105.465 C 144.363 105.398,144.333 105.455,144.333 105.592 M125.939 107.109 L 125.151 107.981 126.023 107.193 C 126.836 106.459,127.018 106.237,126.811 106.237 C 126.765 106.237,126.372 106.630,125.939 107.109 M188.397 107.227 C 188.655 107.295,189.078 107.295,189.336 107.227 C 189.594 107.160,189.383 107.104,188.867 107.104 C 188.350 107.104,188.139 107.160,188.397 107.227 M121.378 111.670 L 120.590 112.542 121.462 111.754 C 121.942 111.321,122.334 110.928,122.334 110.882 C 122.334 110.675,122.113 110.857,121.378 111.670 M219.174 115.023 L 217.438 116.834 219.249 115.098 C 220.245 114.143,221.060 113.329,221.060 113.287 C 221.060 113.090,220.787 113.341,219.174 115.023 M117.093 115.962 L 115.761 117.371 117.170 116.040 C 118.478 114.803,118.701 114.554,118.501 114.554 C 118.459 114.554,117.825 115.188,117.093 115.962 M80.148 128.425 C 80.480 128.489,81.023 128.489,81.355 128.425 C 81.687 128.361,81.415 128.309,80.751 128.309 C 80.087 128.309,79.816 128.361,80.148 128.425 M89.269 128.425 C 89.601 128.489,90.144 128.489,90.476 128.425 C 90.808 128.361,90.537 128.309,89.873 128.309 C 89.209 128.309,88.937 128.361,89.269 128.425 M181.288 128.425 C 181.620 128.489,182.163 128.489,182.495 128.425 C 182.827 128.361,182.555 128.309,181.891 128.309 C 181.227 128.309,180.956 128.361,181.288 128.425 M190.409 128.425 C 190.741 128.489,191.284 128.489,191.616 128.425 C 191.948 128.361,191.677 128.309,191.013 128.309 C 190.349 128.309,190.077 128.361,190.409 128.425 M186.519 137.013 C 186.925 137.075,187.589 137.075,187.995 137.013 C 188.400 136.952,188.068 136.901,187.257 136.901 C 186.445 136.901,186.113 136.952,186.519 137.013 M287.530 137.015 C 288.012 137.075,288.736 137.074,289.140 137.013 C 289.543 136.951,289.148 136.903,288.263 136.904 C 287.378 136.906,287.048 136.956,287.530 137.015 M181.422 137.274 C 181.680 137.342,182.103 137.342,182.361 137.274 C 182.619 137.207,182.408 137.151,181.891 137.151 C 181.375 137.151,181.164 137.207,181.422 137.274 M282.562 137.274 C 282.820 137.342,283.243 137.342,283.501 137.274 C 283.759 137.207,283.548 137.151,283.032 137.151 C 282.515 137.151,282.304 137.207,282.562 137.274 M257.663 148.424 L 256.875 149.296 257.746 148.508 C 258.226 148.074,258.618 147.682,258.618 147.636 C 258.618 147.429,258.397 147.611,257.663 148.424 M224.145 154.795 C 226.798 157.451,229.029 159.624,229.102 159.624 C 229.176 159.624,227.066 157.451,224.413 154.795 C 221.760 152.140,219.529 149.966,219.456 149.966 C 219.382 149.966,221.492 152.140,224.145 154.795 M222.131 167.874 L 215.023 175.050 222.200 167.943 C 226.147 164.034,229.376 160.804,229.376 160.766 C 229.376 160.577,228.736 161.205,222.131 167.874 M169.551 165.661 C 168.899 166.325,168.426 166.868,168.500 166.868 C 168.574 166.868,169.167 166.325,169.819 165.661 C 170.471 164.997,170.943 164.453,170.870 164.453 C 170.796 164.453,170.202 164.997,169.551 165.661 M244.936 190.946 L 218.511 217.438 245.003 191.013 C 269.632 166.447,271.616 164.453,271.428 164.453 C 271.391 164.453,259.469 176.375,244.936 190.946 M140.907 179.209 C 140.907 179.725,140.963 179.936,141.030 179.678 C 141.097 179.420,141.097 178.997,141.030 178.739 C 140.963 178.481,140.907 178.692,140.907 179.209 M312.900 183.233 C 312.900 184.339,312.948 184.792,313.006 184.239 C 313.064 183.685,313.064 182.780,313.006 182.227 C 312.948 181.673,312.900 182.126,312.900 183.233 M162.380 183.233 C 162.380 183.897,162.433 184.168,162.497 183.836 C 162.560 183.504,162.560 182.961,162.497 182.629 C 162.433 182.297,162.380 182.569,162.380 183.233 M140.907 187.257 C 140.907 187.773,140.963 187.985,141.030 187.726 C 141.097 187.468,141.097 187.046,141.030 186.787 C 140.963 186.529,140.907 186.740,140.907 187.257 M252.983 198.726 L 246.144 205.634 253.052 198.795 C 256.851 195.033,259.960 191.925,259.960 191.887 C 259.960 191.697,259.338 192.306,252.983 198.726 M263.313 193.964 C 264.487 195.144,265.507 196.110,265.581 196.110 C 265.655 196.110,264.755 195.144,263.581 193.964 C 262.408 192.783,261.388 191.818,261.314 191.818 C 261.240 191.818,262.140 192.783,263.313 193.964 M266.924 197.518 C 267.582 198.219,268.155 198.793,268.198 198.793 C 268.399 198.793,268.187 198.552,267.002 197.440 L 265.728 196.244 266.924 197.518 M269.886 200.537 C 270.687 201.348,271.404 202.012,271.477 202.012 C 271.551 202.012,270.956 201.348,270.154 200.537 C 269.353 199.725,268.637 199.061,268.563 199.061 C 268.489 199.061,269.085 199.725,269.886 200.537 M169.539 200.738 C 170.197 201.439,170.771 202.012,170.814 202.012 C 171.015 202.012,170.802 201.771,169.618 200.659 L 168.343 199.463 169.539 200.738 M257.009 217.388 C 257.009 217.434,257.401 217.826,257.881 218.260 L 258.753 219.048 257.965 218.176 C 257.230 217.363,257.009 217.181,257.009 217.388 M185.848 229.573 C 186.476 229.629,187.502 229.629,188.129 229.573 C 188.756 229.516,188.243 229.470,186.989 229.470 C 185.734 229.470,185.221 229.516,185.848 229.573 M287.264 229.573 C 287.895 229.630,288.861 229.629,289.410 229.571 C 289.960 229.514,289.443 229.467,288.263 229.468 C 287.082 229.469,286.633 229.516,287.264 229.573 " stroke="none" fill="#848484" fill-rule="evenodd"></path></g></svg>